<svg width="39" height="39" viewBox="0 0 39 39" fill="none" xmlns="http://www.w3.org/2000/svg">
<path d="M3.41699 14.75V11.5834C3.41699 6.83335 6.58366 3.66669 11.3337 3.66669H27.167C31.917 3.66669 35.0837 6.83335 35.0837 11.5834V14.75" stroke="#18191D" stroke-width="2" stroke-miterlimit="10" stroke-linecap="round" stroke-linejoin="round"/>
<path d="M3.41699 24.25V27.4167C3.41699 32.1667 6.58366 35.3333 11.3337 35.3333H27.167C31.917 35.3333 35.0837 32.1667 35.0837 27.4167V24.25" stroke="#18191D" stroke-width="2" stroke-miterlimit="10" stroke-linecap="round" stroke-linejoin="round"/>
<path d="M10.8584 15.1617L19.2501 20.0225L27.5784 15.1934" stroke="#18191D" stroke-width="2" stroke-linecap="round" stroke-linejoin="round"/>
<path d="M19.25 28.6358V20.0067" stroke="#18191D" stroke-width="2" stroke-linecap="round" stroke-linejoin="round"/>
<path d="M17.2865 10.4592L12.2199 13.2775C11.0799 13.9109 10.1299 15.51 10.1299 16.8242V22.1917C10.1299 23.5059 11.064 25.105 12.2199 25.7384L17.2865 28.5566C18.3632 29.1583 20.1365 29.1583 21.229 28.5566L26.2957 25.7384C27.4357 25.105 28.3857 23.5059 28.3857 22.1917V16.8242C28.3857 15.51 27.4515 13.9109 26.2957 13.2775L21.229 10.4592C20.1365 9.84166 18.3632 9.84166 17.2865 10.4592Z" stroke="#18191D" stroke-width="2" stroke-linecap="round" stroke-linejoin="round"/>
</svg>
