<svg width="38" height="39" viewBox="0 0 38 39" fill="none" xmlns="http://www.w3.org/2000/svg">
<path d="M21.2328 33.4175L19.0004 34.8583C16.9262 36.1408 14.0445 34.7 14.0445 32.135V23.6642C14.0445 22.54 13.4112 21.0992 12.762 20.3075L6.682 13.9108C5.8745 13.1033 5.24121 11.6783 5.24121 10.7125V7.03915C5.24121 5.12332 6.68208 3.6825 8.43958 3.6825H29.5612C31.3187 3.6825 32.7596 5.12331 32.7596 6.88081V10.3958C32.7596 11.6783 31.952 13.2775 31.1604 14.0692" stroke="#18191D" stroke-width="2" stroke-linecap="round" stroke-linejoin="round"/>
<path d="M27.2689 18.0497C27.0578 17.8724 26.7646 17.8724 26.5535 18.0497C25.4393 18.968 22.1495 21.9637 22.1671 25.4534C22.1671 28.278 24.2958 30.5834 26.917 30.5834C29.5383 30.5834 31.667 28.2844 31.667 25.4597C31.6728 22.0207 28.3772 18.9744 27.2689 18.0497Z" stroke="#18191D" stroke-width="2" stroke-linecap="round" stroke-linejoin="round"/>
</svg>
