<svg width="38" height="39" viewBox="0 0 38 39" fill="none" xmlns="http://www.w3.org/2000/svg">
<path d="M28.7217 34.7317C27.3283 35.1433 25.6817 35.3334 23.75 35.3334H14.25C12.3183 35.3334 10.6717 35.1433 9.27832 34.7317C9.62665 30.615 13.8542 27.3691 19 27.3691C24.1458 27.3691 28.3733 30.615 28.7217 34.7317Z" stroke="#18191D" stroke-width="2" stroke-miterlimit="10" stroke-linecap="round" stroke-linejoin="round"/>
<path d="M23.7503 3.66669H14.2503C6.33366 3.66669 3.16699 6.83335 3.16699 14.75V24.25C3.16699 30.235 4.97199 33.5125 9.27866 34.7317C9.62699 30.615 13.8545 27.3691 19.0003 27.3691C24.1462 27.3691 28.3737 30.615 28.722 34.7317C33.0287 33.5125 34.8337 30.235 34.8337 24.25V14.75C34.8337 6.83335 31.667 3.66669 23.7503 3.66669ZM19.0003 22.9358C15.8653 22.9358 13.332 20.3867 13.332 17.2517C13.332 14.1167 15.8653 11.5834 19.0003 11.5834C22.1353 11.5834 24.6687 14.1167 24.6687 17.2517C24.6687 20.3867 22.1353 22.9358 19.0003 22.9358Z" stroke="#18191D" stroke-width="2" stroke-miterlimit="10" stroke-linecap="round" stroke-linejoin="round"/>
<path d="M24.6687 17.2517C24.6687 20.3867 22.1354 22.9358 19.0004 22.9358C15.8654 22.9358 13.332 20.3867 13.332 17.2517C13.332 14.1167 15.8654 11.5834 19.0004 11.5834C22.1354 11.5834 24.6687 14.1167 24.6687 17.2517Z" stroke="#18191D" stroke-width="2" stroke-miterlimit="10" stroke-linecap="round" stroke-linejoin="round"/>
</svg>
