<svg width="61" height="61" viewBox="0 0 61 61" fill="none" xmlns="http://www.w3.org/2000/svg">
<circle cx="25.4167" cy="15.2499" r="10.1667" stroke="white" stroke-width="2" stroke-linecap="round" stroke-linejoin="round"/>
<path d="M45.7497 44.4792C45.7497 50.796 45.7497 55.9167 25.4163 55.9167C5.08301 55.9167 5.08301 50.796 5.08301 44.4792C5.08301 38.1625 14.1866 33.0417 25.4163 33.0417C36.6461 33.0417 45.7497 38.1625 45.7497 44.4792Z" stroke="white" stroke-width="2" stroke-linecap="round" stroke-linejoin="round"/>
<path d="M40.667 24.6534C40.667 28.2432 43.7318 30.1562 45.9753 31.8685C46.767 32.4727 47.5295 33.0416 48.292 33.0416C49.0545 33.0416 49.817 32.4727 50.6087 31.8685C52.8522 30.1562 55.917 28.2432 55.917 24.6534C55.917 21.0635 51.7231 18.5177 48.292 21.9689C44.8609 18.5177 40.667 21.0635 40.667 24.6534Z" stroke="white" stroke-width="2" stroke-linecap="round" stroke-linejoin="round"/>
</svg>
