<svg width="61" height="62" viewBox="0 0 61 62" fill="none" xmlns="http://www.w3.org/2000/svg">
<path d="M22.0359 36.0833H10.1663C7.37051 36.0833 5.08301 38.3708 5.08301 41.1666V56.4166H22.0359V36.0833Z" stroke="white" stroke-width="2" stroke-linecap="round" stroke-linejoin="round"/>
<path d="M33.8803 25.9167H27.0941C24.2982 25.9167 22.0107 28.2042 22.0107 31.0001V56.4167H38.9637V31.0001C38.9637 28.2042 36.7016 25.9167 33.8803 25.9167Z" stroke="white" stroke-width="2" stroke-linecap="round" stroke-linejoin="round"/>
<path d="M50.8334 43.7083H38.9639V56.4166H55.9168V48.7916C55.9168 45.9958 53.6293 43.7083 50.8334 43.7083Z" stroke="white" stroke-width="2" stroke-linecap="round" stroke-linejoin="round"/>
<path d="M31.8215 5.76117L33.1686 8.45533C33.3465 8.83658 33.8294 9.1924 34.2361 9.24324L36.6761 9.64991C38.2265 9.90408 38.6078 11.0478 37.4894 12.1407L35.5832 14.0469C35.2528 14.3774 35.0749 14.9874 35.1765 15.4195L35.7103 17.7578C36.1423 19.6133 35.1511 20.3249 33.5244 19.3591L31.2369 18.012C30.8303 17.7579 30.144 17.7579 29.7374 18.012L27.4498 19.3591C25.8232 20.3249 24.8319 19.6133 25.264 17.7578L25.7978 15.4195C25.8994 14.9874 25.7215 14.3519 25.3911 14.0469L23.5103 12.1661C22.3919 11.0478 22.7478 9.92944 24.3236 9.67528L26.7636 9.26868C27.1703 9.19243 27.6532 8.8366 27.8311 8.48077L29.1782 5.78653C29.9153 4.31236 31.0844 4.31242 31.8215 5.76117Z" stroke="white" stroke-width="2" stroke-linecap="round" stroke-linejoin="round"/>
</svg>
