<svg width="61" height="62" viewBox="0 0 61 62" fill="none" xmlns="http://www.w3.org/2000/svg">
<path d="M45.7501 18.6983C45.5976 18.6728 45.4197 18.6728 45.2672 18.6983C41.7597 18.5712 38.9639 15.6991 38.9639 12.1408C38.9639 8.50617 41.8868 5.58325 45.5214 5.58325C49.1559 5.58325 52.0789 8.53159 52.0789 12.1408C52.0534 15.6991 49.2576 18.5712 45.7501 18.6983Z" stroke="white" stroke-width="2" stroke-linecap="round" stroke-linejoin="round"/>
<path d="M43.1319 37.2015C46.614 37.7861 50.4519 37.1761 53.1461 35.3715C56.7298 32.9823 56.7298 29.0682 53.1461 26.679C50.4265 24.8744 46.5377 24.2644 43.0557 24.8744" stroke="white" stroke-width="2" stroke-linecap="round" stroke-linejoin="round"/>
<path d="M15.1735 18.6983C15.326 18.6728 15.5039 18.6728 15.6564 18.6983C19.1639 18.5712 21.9597 15.6991 21.9597 12.1408C21.9597 8.50617 19.0368 5.58325 15.4022 5.58325C11.7676 5.58325 8.84473 8.53159 8.84473 12.1408C8.87014 15.6991 11.666 18.5712 15.1735 18.6983Z" stroke="white" stroke-width="2" stroke-linecap="round" stroke-linejoin="round"/>
<path d="M17.7918 37.2015C14.3097 37.7861 10.4718 37.1761 7.77766 35.3715C4.19391 32.9823 4.19391 29.0682 7.77766 26.679C10.4972 24.8744 14.386 24.2644 17.8681 24.8744" stroke="white" stroke-width="2" stroke-linecap="round" stroke-linejoin="round"/>
<path d="M30.5001 37.6846C30.3476 37.6592 30.1697 37.6592 30.0172 37.6846C26.5097 37.5575 23.7139 34.6854 23.7139 31.1271C23.7139 27.4925 26.6368 24.5696 30.2714 24.5696C33.9059 24.5696 36.8289 27.5179 36.8289 31.1271C36.8035 34.6854 34.0076 37.5829 30.5001 37.6846Z" stroke="white" stroke-width="2" stroke-linecap="round" stroke-linejoin="round"/>
<path d="M23.1038 45.6908C19.5201 48.08 19.5201 51.9941 23.1038 54.3833C27.1705 57.1029 33.8297 57.1029 37.8963 54.3833C41.4801 51.9941 41.4801 48.08 37.8963 45.6908C33.8551 42.9966 27.1705 42.9966 23.1038 45.6908Z" stroke="white" stroke-width="2" stroke-linecap="round" stroke-linejoin="round"/>
</svg>
