<svg width="39" height="39" viewBox="0 0 39 39" fill="none" xmlns="http://www.w3.org/2000/svg">
<path d="M21.0837 35.3334H8.41699C5.25033 35.3334 3.66699 33.75 3.66699 30.5834V17.9167C3.66699 14.75 5.25033 13.1667 8.41699 13.1667H16.3337V30.5834C16.3337 33.75 17.917 35.3334 21.0837 35.3334Z" stroke="#18191D" stroke-width="2" stroke-miterlimit="10" stroke-linecap="round" stroke-linejoin="round"/>
<path d="M16.5078 6.83337C16.3811 7.30837 16.3337 7.83087 16.3337 8.41671V13.1667H8.41699V10C8.41699 8.25837 9.84199 6.83337 11.5837 6.83337H16.5078Z" stroke="#18191D" stroke-width="2" stroke-miterlimit="10" stroke-linecap="round" stroke-linejoin="round"/>
<path d="M22.667 13.1667V21.0834" stroke="#18191D" stroke-width="2" stroke-miterlimit="10" stroke-linecap="round" stroke-linejoin="round"/>
<path d="M29 13.1667V21.0834" stroke="#18191D" stroke-width="2" stroke-miterlimit="10" stroke-linecap="round" stroke-linejoin="round"/>
<path d="M27.417 27.4167H24.2503C23.3795 27.4167 22.667 28.1292 22.667 29V35.3334H29.0003V29C29.0003 28.1292 28.2878 27.4167 27.417 27.4167Z" stroke="#18191D" stroke-width="2" stroke-miterlimit="10" stroke-linecap="round" stroke-linejoin="round"/>
<path d="M10 21.0834V27.4167" stroke="#18191D" stroke-width="2" stroke-miterlimit="10" stroke-linecap="round" stroke-linejoin="round"/>
<path d="M16.334 30.5834V8.41669C16.334 5.25002 17.9173 3.66669 21.084 3.66669H30.584C33.7507 3.66669 35.334 5.25002 35.334 8.41669V30.5834C35.334 33.75 33.7507 35.3334 30.584 35.3334H21.084C17.9173 35.3334 16.334 33.75 16.334 30.5834Z" stroke="#18191D" stroke-width="2" stroke-miterlimit="10" stroke-linecap="round" stroke-linejoin="round"/>
</svg>
