<svg width="61" height="61" viewBox="0 0 61 61" fill="none" xmlns="http://www.w3.org/2000/svg">
<path d="M48.2913 22.8749C48.2913 26.5603 47.1984 29.9408 45.3176 32.762C42.5726 36.8287 38.2263 39.7008 33.1684 40.4378C32.3043 40.5903 31.4147 40.6666 30.4997 40.6666C29.5847 40.6666 28.6951 40.5903 27.8309 40.4378C22.773 39.7008 18.4268 36.8287 15.6818 32.762C13.8009 29.9408 12.708 26.5603 12.708 22.8749C12.708 13.0387 20.6634 5.08325 30.4997 5.08325C40.3359 5.08325 48.2913 13.0387 48.2913 22.8749Z" stroke="white" stroke-width="2" stroke-linecap="round" stroke-linejoin="round"/>
<path d="M54.0107 46.9447L49.8169 47.9359C48.8765 48.1647 48.1394 48.8764 47.9361 49.8168L47.0465 53.553C46.5636 55.5864 43.9711 56.1964 42.624 54.5951L30.5002 40.6668L18.3765 54.6205C17.0294 56.2218 14.4369 55.6117 13.954 53.5784L13.0644 49.8422C12.8357 48.9017 12.0986 48.1647 11.1836 47.9614L6.98982 46.9701C5.05816 46.5126 4.37191 44.098 5.76982 42.7001L15.6823 32.7876C18.4273 36.8543 22.7736 39.7264 27.8315 40.4635C28.6957 40.616 29.5852 40.6922 30.5002 40.6922C31.4152 40.6922 32.3048 40.616 33.169 40.4635C38.2269 39.7264 42.5732 36.8543 45.3182 32.7876L55.2307 42.7001C56.6286 44.0726 55.9423 46.4872 54.0107 46.9447Z" stroke="white" stroke-width="2" stroke-linecap="round" stroke-linejoin="round"/>
<path d="M31.9745 15.1992L33.4741 18.1984C33.6774 18.6051 34.2112 19.0117 34.6941 19.088L37.4137 19.5455C39.142 19.8251 39.5487 21.0959 38.3033 22.3413L36.1937 24.4509C35.8378 24.8067 35.6345 25.493 35.7616 26.0013L36.3716 28.6192C36.8545 30.678 35.7616 31.4913 33.9316 30.3984L31.3899 28.8988C30.9324 28.6192 30.1699 28.6192 29.7124 28.8988L27.1708 30.3984C25.3408 31.4659 24.2478 30.678 24.7308 28.6192L25.3408 26.0013C25.4424 25.5184 25.2645 24.8067 24.9087 24.4509L22.7991 22.3413C21.5537 21.0959 21.9603 19.8505 23.6887 19.5455L26.4083 19.088C26.8658 19.0117 27.3995 18.6051 27.6028 18.1984L29.1024 15.1992C29.8395 13.5726 31.1612 13.5726 31.9745 15.1992Z" stroke="white" stroke-width="2" stroke-linecap="round" stroke-linejoin="round"/>
</svg>
