<svg width="40" height="40" viewBox="0 0 40 40" fill="none" xmlns="http://www.w3.org/2000/svg">
<g clip-path="url(#clip0_155_529)">
<path d="M16.0049 0.837883C19.1259 -0.450759 22.1482 -0.25437 25.0766 1.43669C25.0914 1.44239 25.1056 1.4496 25.1187 1.4582C25.1387 1.47149 25.1564 1.48824 25.1706 1.50854C24.8556 1.53249 24.5454 1.54204 24.2305 1.53249C22.9003 1.60435 21.6312 1.92527 20.4232 2.49058C19.0742 1.60435 17.603 1.05345 16.0049 0.837883Z" fill="#D9D9D9"/>
<path d="M16.0049 0.837883C19.1259 -0.450759 22.1482 -0.25437 25.0766 1.43669C25.0914 1.44239 25.1056 1.4496 25.1187 1.4582C25.1387 1.47149 25.1564 1.48824 25.1706 1.50854C24.8556 1.53249 24.5454 1.54204 24.2305 1.53249C22.9003 1.60435 21.6312 1.92527 20.4232 2.49058C19.0742 1.60435 17.603 1.05345 16.0049 0.837883Z" fill="url(#paint0_radial_155_529)"/>
<path d="M28.6018 4.74204C29.932 4.80436 31.2152 5.07736 32.4561 5.55641C30.8016 3.43909 28.6441 2.1744 25.9931 1.77198C25.9602 1.81035 25.9696 1.84384 26.0166 1.86779C27.0413 2.67262 27.9062 3.6307 28.6018 4.74204Z" fill="#D9D9D9"/>
<path d="M28.6018 4.74204C29.932 4.80436 31.2152 5.07736 32.4561 5.55641C30.8016 3.43909 28.6441 2.1744 25.9931 1.77198C25.9602 1.81035 25.9696 1.84384 26.0166 1.86779C27.0413 2.67262 27.9062 3.6307 28.6018 4.74204Z" fill="url(#paint1_radial_155_529)"/>
<path d="M38.4257 14.0354C38.4398 14.1744 38.4257 14.3037 38.3787 14.4187C37.4245 13.039 36.2259 11.9372 34.7829 11.1133C34.6466 9.30735 34.0919 7.65466 33.1143 6.15521C33.3634 6.22706 33.5984 6.33729 33.8193 6.49054C36.4985 8.27253 38.0308 10.7875 38.4257 14.0354Z" fill="#D9D9D9"/>
<path d="M38.4257 14.0354C38.4398 14.1744 38.4257 14.3037 38.3787 14.4187C37.4245 13.039 36.2259 11.9372 34.7829 11.1133C34.6466 9.30735 34.0919 7.65466 33.1143 6.15521C33.3634 6.22706 33.5984 6.33729 33.8193 6.49054C36.4985 8.27253 38.0308 10.7875 38.4257 14.0354Z" fill="url(#paint2_radial_155_529)"/>
<path d="M38.7546 25.0055C40.3809 21.8007 40.3809 18.5911 38.7546 15.3768C38.7412 15.4293 38.7286 15.481 38.7162 15.5326C38.698 15.608 38.6801 15.6832 38.6606 15.76C38.5431 17.2834 38.1388 18.7205 37.4385 20.0714C38.167 21.4798 38.576 22.984 38.6606 24.5744L38.679 24.6572L38.7041 24.7739C38.7206 24.8511 38.7369 24.9283 38.7546 25.0055Z" fill="#D9D9D9"/>
<path d="M38.7546 25.0055C40.3809 21.8007 40.3809 18.5911 38.7546 15.3768C38.7412 15.4293 38.7286 15.481 38.7162 15.5326C38.698 15.608 38.6801 15.6832 38.6606 15.76C38.5431 17.2834 38.1388 18.7205 37.4385 20.0714C38.167 21.4798 38.576 22.984 38.6606 24.5744L38.679 24.6572L38.7041 24.7739C38.7206 24.8511 38.7369 24.9283 38.7546 25.0055Z" fill="url(#paint3_radial_155_529)"/>
<path d="M27.5208 4.83785C27.817 4.82822 28.1178 4.80426 28.4139 4.76598C27.6478 3.55397 26.6748 2.54798 25.4997 1.74802C23.7935 1.5899 22.1624 1.87732 20.6113 2.6103C20.8557 2.7875 21.0908 2.96958 21.3164 3.16119C22.2847 3.98034 23.0931 4.9384 23.7371 6.03545C24.9216 5.38874 26.1859 4.99109 27.5208 4.83785Z" fill="#D9D9D9"/>
<path d="M27.5208 4.83785C27.817 4.82822 28.1178 4.80426 28.4139 4.76598C27.6478 3.55397 26.6748 2.54798 25.4997 1.74802C23.7935 1.5899 22.1624 1.87732 20.6113 2.6103C20.8557 2.7875 21.0908 2.96958 21.3164 3.16119C22.2847 3.98034 23.0931 4.9384 23.7371 6.03545C24.9216 5.38874 26.1859 4.99109 27.5208 4.83785Z" fill="url(#paint4_radial_155_529)"/>
<path d="M23.2435 6.32288C23.3328 6.27971 23.4174 6.23181 23.502 6.17916C22.7829 4.73728 21.7488 3.57317 20.3998 2.68217C19.4879 3.15167 18.6654 3.74083 17.9321 4.45462C17.8052 4.63183 17.6454 4.77554 17.4621 4.88575C17.1143 5.26419 16.7946 5.66175 16.4985 6.08335C16.3857 6.24149 16.428 6.3373 16.616 6.37078C17.2459 6.82108 17.8381 7.31445 18.4022 7.85581C18.9615 8.45935 19.455 9.11085 19.8828 9.81988C20.2964 9.10132 20.7899 8.44982 21.3634 7.85581C21.9509 7.29049 22.5761 6.77797 23.2435 6.32288Z" fill="#D9D9D9"/>
<path d="M23.2435 6.32288C23.3328 6.27971 23.4174 6.23181 23.502 6.17916C22.7829 4.73728 21.7488 3.57317 20.3998 2.68217C19.4879 3.15167 18.6654 3.74083 17.9321 4.45462C17.8052 4.63183 17.6454 4.77554 17.4621 4.88575C17.1143 5.26419 16.7946 5.66175 16.4985 6.08335C16.3857 6.24149 16.428 6.3373 16.616 6.37078C17.2459 6.82108 17.8381 7.31445 18.4022 7.85581C18.9615 8.45935 19.455 9.11085 19.8828 9.81988C20.2964 9.10132 20.7899 8.44982 21.3634 7.85581C21.9509 7.29049 22.5761 6.77797 23.2435 6.32288Z" fill="url(#paint5_radial_155_529)"/>
<path d="M29.8945 9.86779C29.7488 9.9109 29.6031 9.93011 29.448 9.91569C28.7335 9.96834 28.0285 10.0834 27.3328 10.251C26.5337 10.5145 25.7488 10.8354 24.9826 11.2091C24.9873 10.3708 24.9074 9.54199 24.7476 8.71808C24.5267 7.95636 24.2635 7.20431 23.9486 6.46659C23.8592 6.38031 23.8263 6.2845 23.8545 6.17916C25.3211 5.36 26.8863 4.97677 28.5549 5.02946C29.4198 6.52402 29.8663 8.1337 29.8945 9.86779Z" fill="#D9D9D9"/>
<path d="M29.8945 9.86779C29.7488 9.9109 29.6031 9.93011 29.448 9.91569C28.7335 9.96834 28.0285 10.0834 27.3328 10.251C26.5337 10.5145 25.7488 10.8354 24.9826 11.2091C24.9873 10.3708 24.9074 9.54199 24.7476 8.71808C24.5267 7.95636 24.2635 7.20431 23.9486 6.46659C23.8592 6.38031 23.8263 6.2845 23.8545 6.17916C25.3211 5.36 26.8863 4.97677 28.5549 5.02946C29.4198 6.52402 29.8663 8.1337 29.8945 9.86779Z" fill="url(#paint6_radial_155_529)"/>
<path d="M24.1833 11.736C24.3948 11.621 24.5969 11.4917 24.7944 11.3528C24.8461 11.051 24.8461 10.7445 24.7944 10.4426C24.7615 9.81035 24.6674 9.18759 24.5123 8.57437C24.3149 7.77916 24.0188 7.03191 23.6193 6.32288C22.9095 6.73006 22.2656 7.22352 21.6921 7.80791C21.1986 8.263 20.7756 8.77552 20.423 9.34084C20.2585 9.5372 20.1175 9.75277 20 9.98755C20.042 10.0698 20.0839 10.1509 20.1263 10.2311C20.2072 10.3844 20.2896 10.5343 20.376 10.6822C20.6957 11.4055 20.9307 12.1528 21.0811 12.9337C21.1328 13.1397 21.1798 13.3456 21.2221 13.5564L21.2317 13.6695C21.2472 13.854 21.2628 14.0393 21.2789 14.2245L21.2901 14.3533L21.3117 14.5965C21.3208 14.697 21.3301 14.7975 21.3396 14.8977C21.5652 14.4905 21.8237 14.1073 22.1152 13.748C22.2374 13.6138 22.3455 13.4701 22.4442 13.3169C22.7638 13.015 23.0787 12.7037 23.3843 12.3828C23.6569 12.1719 23.9248 11.9564 24.1833 11.736Z" fill="#D9D9D9"/>
<path d="M24.1833 11.736C24.3948 11.621 24.5969 11.4917 24.7944 11.3528C24.8461 11.051 24.8461 10.7445 24.7944 10.4426C24.7615 9.81035 24.6674 9.18759 24.5123 8.57437C24.3149 7.77916 24.0188 7.03191 23.6193 6.32288C22.9095 6.73006 22.2656 7.22352 21.6921 7.80791C21.1986 8.263 20.7756 8.77552 20.423 9.34084C20.2585 9.5372 20.1175 9.75277 20 9.98755C20.042 10.0698 20.0839 10.1509 20.1263 10.2311C20.2072 10.3844 20.2896 10.5343 20.376 10.6822C20.6957 11.4055 20.9307 12.1528 21.0811 12.9337C21.1328 13.1397 21.1798 13.3456 21.2221 13.5564L21.2317 13.6695C21.2472 13.854 21.2628 14.0393 21.2789 14.2245L21.2901 14.3533L21.3117 14.5965C21.3208 14.697 21.3301 14.7975 21.3396 14.8977C21.5652 14.4905 21.8237 14.1073 22.1152 13.748C22.2374 13.6138 22.3455 13.4701 22.4442 13.3169C22.7638 13.015 23.0787 12.7037 23.3843 12.3828C23.6569 12.1719 23.9248 11.9564 24.1833 11.736Z" fill="url(#paint7_radial_155_529)"/>
<path d="M29.5888 12.5025C29.4525 13.1732 29.2316 13.8151 28.9307 14.4187C28.9025 14.5289 28.8555 14.6343 28.7897 14.7301C28.3808 14.754 27.9766 14.7635 27.5676 14.754C26.9895 14.845 26.4114 14.96 25.8285 15.0893C25.5559 15.1947 25.2739 15.2905 24.9824 15.3768C24.6299 15.5492 24.268 15.7073 23.9014 15.8558C24.0612 15.5013 24.2163 15.1517 24.3714 14.8019C24.456 14.505 24.55 14.2175 24.6534 13.9396C24.7803 13.3456 24.8931 12.7565 24.9824 12.1672C24.973 11.9421 24.9824 11.7216 25.006 11.4965C25.241 11.3097 25.4995 11.1659 25.7815 11.0654C26.3126 10.7827 26.8767 10.5768 27.4736 10.4426C28.2492 10.2126 29.0483 10.0834 29.8708 10.0594C29.899 10.8929 29.805 11.7121 29.5888 12.5025Z" fill="#D9D9D9"/>
<path d="M29.5888 12.5025C29.4525 13.1732 29.2316 13.8151 28.9307 14.4187C28.9025 14.5289 28.8555 14.6343 28.7897 14.7301C28.3808 14.754 27.9766 14.7635 27.5676 14.754C26.9895 14.845 26.4114 14.96 25.8285 15.0893C25.5559 15.1947 25.2739 15.2905 24.9824 15.3768C24.6299 15.5492 24.268 15.7073 23.9014 15.8558C24.0612 15.5013 24.2163 15.1517 24.3714 14.8019C24.456 14.505 24.55 14.2175 24.6534 13.9396C24.7803 13.3456 24.8931 12.7565 24.9824 12.1672C24.973 11.9421 24.9824 11.7216 25.006 11.4965C25.241 11.3097 25.4995 11.1659 25.7815 11.0654C26.3126 10.7827 26.8767 10.5768 27.4736 10.4426C28.2492 10.2126 29.0483 10.0834 29.8708 10.0594C29.899 10.8929 29.805 11.7121 29.5888 12.5025Z" fill="url(#paint8_radial_155_529)"/>
<path d="M33.8656 10.6343C34.0818 10.7445 34.298 10.8595 34.5236 10.9696C34.4296 9.10137 33.8327 7.41993 32.7375 5.91574C31.4731 5.29298 30.1429 4.99123 28.7422 5.00556C28.9208 5.29298 29.0759 5.59004 29.2122 5.89178C29.7528 7.15645 30.0348 8.48335 30.0583 9.86783C31.3697 9.90141 32.6388 10.16 33.8656 10.6343Z" fill="#D9D9D9"/>
<path d="M33.8656 10.6343C34.0818 10.7445 34.298 10.8595 34.5236 10.9696C34.4296 9.10137 33.8327 7.41993 32.7375 5.91574C31.4731 5.29298 30.1429 4.99123 28.7422 5.00556C28.9208 5.29298 29.0759 5.59004 29.2122 5.89178C29.7528 7.15645 30.0348 8.48335 30.0583 9.86783C31.3697 9.90141 32.6388 10.16 33.8656 10.6343Z" fill="url(#paint9_radial_155_529)"/>
<path d="M36.5924 18.778C36.8415 19.1372 37.086 19.5061 37.321 19.8798C38.1341 18.3373 38.5243 16.6941 38.4961 14.9456C37.5936 13.4032 36.3715 12.2056 34.8298 11.3528C34.8063 11.6402 34.7969 11.9277 34.8063 12.2151C34.764 13.6138 34.4491 14.9456 33.8662 16.2151C34.3927 16.6079 34.9097 17.0247 35.4173 17.4606C35.8357 17.8822 36.2305 18.3181 36.5924 18.778Z" fill="#D9D9D9"/>
<path d="M36.5924 18.778C36.8415 19.1372 37.086 19.5061 37.321 19.8798C38.1341 18.3373 38.5243 16.6941 38.4961 14.9456C37.5936 13.4032 36.3715 12.2056 34.8298 11.3528C34.8063 11.6402 34.7969 11.9277 34.8063 12.2151C34.764 13.6138 34.4491 14.9456 33.8662 16.2151C34.3927 16.6079 34.9097 17.0247 35.4173 17.4606C35.8357 17.8822 36.2305 18.3181 36.5924 18.778Z" fill="url(#paint10_radial_155_529)"/>
<path d="M33.6543 16.1432C33.5039 16.0379 33.3581 15.9421 33.2077 15.8558C32.5168 15.5061 31.7929 15.2378 31.0456 15.0414C30.3828 14.8833 29.706 14.778 29.0244 14.7301C29.3346 14.1217 29.5885 13.4893 29.7765 12.8378C29.9645 12.0187 30.0726 11.1899 30.1055 10.3468V10.1073C31.6895 10.1073 33.1795 10.4905 34.5708 11.257C34.693 12.9671 34.3875 14.5959 33.6543 16.1432Z" fill="#D9D9D9"/>
<path d="M33.6543 16.1432C33.5039 16.0379 33.3581 15.9421 33.2077 15.8558C32.5168 15.5061 31.7929 15.2378 31.0456 15.0414C30.3828 14.8833 29.706 14.778 29.0244 14.7301C29.3346 14.1217 29.5885 13.4893 29.7765 12.8378C29.9645 12.0187 30.0726 11.1899 30.1055 10.3468V10.1073C31.6895 10.1073 33.1795 10.4905 34.5708 11.257C34.693 12.9671 34.3875 14.5959 33.6543 16.1432Z" fill="url(#paint11_radial_155_529)"/>
<path d="M31.9855 18.6822C32.6388 17.9971 33.1699 17.2258 33.5836 16.3588C32.8409 15.8845 32.0419 15.5396 31.1864 15.3289C30.5801 15.1372 29.9549 15.0222 29.3063 14.9935C29.1699 14.9456 29.0383 14.9456 28.9067 14.9935C28.7234 15.3623 28.5119 15.7168 28.2722 16.0474C27.9009 16.5696 27.4919 17.0629 27.0501 17.5325C26.6788 17.8869 26.2886 18.2126 25.875 18.5145C26.3967 18.5959 26.9138 18.7013 27.4261 18.8259C27.9855 19.0031 28.5354 19.2138 29.0712 19.4486C29.4661 19.6689 29.8609 19.8989 30.2463 20.1432C30.2933 20.1767 30.3403 20.1767 30.3873 20.1432C30.4296 20.0953 30.4766 20.0522 30.5283 20.0235C31.0689 19.645 31.5577 19.1996 31.9855 18.6822Z" fill="#D9D9D9"/>
<path d="M31.9855 18.6822C32.6388 17.9971 33.1699 17.2258 33.5836 16.3588C32.8409 15.8845 32.0419 15.5396 31.1864 15.3289C30.5801 15.1372 29.9549 15.0222 29.3063 14.9935C29.1699 14.9456 29.0383 14.9456 28.9067 14.9935C28.7234 15.3623 28.5119 15.7168 28.2722 16.0474C27.9009 16.5696 27.4919 17.0629 27.0501 17.5325C26.6788 17.8869 26.2886 18.2126 25.875 18.5145C26.3967 18.5959 26.9138 18.7013 27.4261 18.8259C27.9855 19.0031 28.5354 19.2138 29.0712 19.4486C29.4661 19.6689 29.8609 19.8989 30.2463 20.1432C30.2933 20.1767 30.3403 20.1767 30.3873 20.1432C30.4296 20.0953 30.4766 20.0522 30.5283 20.0235C31.0689 19.645 31.5577 19.1996 31.9855 18.6822Z" fill="url(#paint12_radial_155_529)"/>
<path d="M37.203 20.0714C37.0619 20.3972 36.8739 20.6846 36.6389 20.9337C35.8539 22.0978 34.8669 23.051 33.6777 23.784C33.6307 23.8174 33.5837 23.8174 33.5367 23.784C33.485 23.6977 33.438 23.6115 33.3957 23.5205C33.0102 22.8642 32.5543 22.2558 32.0326 21.7001C31.7787 21.4653 31.5296 21.2163 31.2805 20.9576C31.0079 20.7516 30.74 20.536 30.4814 20.3109C30.8857 19.9947 31.2805 19.6594 31.6565 19.3049C31.8116 19.1133 31.9856 18.9361 32.1736 18.778C32.6671 18.2126 33.1089 17.6043 33.4897 16.9576C33.5461 16.7612 33.6401 16.5839 33.7717 16.4307C34.9468 17.1588 35.9198 18.0978 36.6859 19.257C36.8739 19.5157 37.0478 19.7839 37.203 20.0714Z" fill="#D9D9D9"/>
<path d="M37.203 20.0714C37.0619 20.3972 36.8739 20.6846 36.6389 20.9337C35.8539 22.0978 34.8669 23.051 33.6777 23.784C33.6307 23.8174 33.5837 23.8174 33.5367 23.784C33.485 23.6977 33.438 23.6115 33.3957 23.5205C33.0102 22.8642 32.5543 22.2558 32.0326 21.7001C31.7787 21.4653 31.5296 21.2163 31.2805 20.9576C31.0079 20.7516 30.74 20.536 30.4814 20.3109C30.8857 19.9947 31.2805 19.6594 31.6565 19.3049C31.8116 19.1133 31.9856 18.9361 32.1736 18.778C32.6671 18.2126 33.1089 17.6043 33.4897 16.9576C33.5461 16.7612 33.6401 16.5839 33.7717 16.4307C34.9468 17.1588 35.9198 18.0978 36.6859 19.257C36.8739 19.5157 37.0478 19.7839 37.203 20.0714Z" fill="url(#paint13_radial_155_529)"/>
<path d="M14.5949 1.00552C14.7924 0.99111 14.9804 1.00552 15.159 1.05342C13.5703 1.93488 12.3012 3.16598 11.3517 4.74205C9.55617 4.766 7.87345 5.21145 6.29883 6.08335C7.62433 3.73129 9.56557 2.17964 12.1508 1.3648C12.9498 1.13005 13.763 1.01029 14.5949 1.00552Z" fill="#D9D9D9"/>
<path d="M14.5949 1.00552C14.7924 0.99111 14.9804 1.00552 15.159 1.05342C13.5703 1.93488 12.3012 3.16598 11.3517 4.74205C9.55617 4.766 7.87345 5.21145 6.29883 6.08335C7.62433 3.73129 9.56557 2.17964 12.1508 1.3648C12.9498 1.13005 13.763 1.01029 14.5949 1.00552Z" fill="url(#paint14_radial_155_529)"/>
<path d="M19.6913 2.86751L19.3416 3.0654C18.0961 3.88454 17.0526 4.91924 16.2159 6.17916C15.0737 5.48455 13.8469 5.05342 12.5261 4.88575C12.1971 4.85701 11.8681 4.81864 11.5391 4.766C12.559 3.13249 13.9221 1.88698 15.6284 1.02947C17.2923 1.13969 18.8293 1.64746 20.2347 2.56241C20.1474 2.61106 20.0605 2.65971 19.9738 2.70837L19.6913 2.86751Z" fill="#D9D9D9"/>
<path d="M19.6913 2.86751L19.3416 3.0654C18.0961 3.88454 17.0526 4.91924 16.2159 6.17916C15.0737 5.48455 13.8469 5.05342 12.5261 4.88575C12.1971 4.85701 11.8681 4.81864 11.5391 4.766C12.559 3.13249 13.9221 1.88698 15.6284 1.02947C17.2923 1.13969 18.8293 1.64746 20.2347 2.56241C20.1474 2.61106 20.0605 2.65971 19.9738 2.70837L19.6913 2.86751Z" fill="url(#paint15_radial_155_529)"/>
<path d="M10.6932 5.98759C10.8436 5.65226 11.0175 5.32647 11.2102 5.00556C10.9141 4.97197 10.6133 4.97197 10.3172 5.00556C8.78014 5.13964 7.36064 5.62831 6.06334 6.46663C5.27368 7.9612 4.91175 9.5612 4.98226 11.2571C5.36769 11.0175 5.76722 10.8067 6.18085 10.6343C7.37474 10.1839 8.60153 9.93006 9.87062 9.86783C9.91293 8.52172 10.1902 7.22831 10.6932 5.98759Z" fill="#D9D9D9"/>
<path d="M10.6932 5.98759C10.8436 5.65226 11.0175 5.32647 11.2102 5.00556C10.9141 4.97197 10.6133 4.97197 10.3172 5.00556C8.78014 5.13964 7.36064 5.62831 6.06334 6.46663C5.27368 7.9612 4.91175 9.5612 4.98226 11.2571C5.36769 11.0175 5.76722 10.8067 6.18085 10.6343C7.37474 10.1839 8.60153 9.93006 9.87062 9.86783C9.91293 8.52172 10.1902 7.22831 10.6932 5.98759Z" fill="url(#paint16_radial_155_529)"/>
<path d="M1.33933 14.8498C1.29232 14.7348 1.27823 14.6055 1.29232 14.4666C1.44274 12.0474 2.31701 9.95406 3.92452 8.19114L4.46506 7.64024L4.46582 7.63938L4.46933 7.63602L4.47243 7.6331L4.4884 7.61796C4.60745 7.50548 4.68091 7.43607 4.73838 7.38366C4.77199 7.3531 4.80014 7.32829 4.82877 7.30405C4.86365 7.27449 4.89918 7.24575 4.94609 7.20843L5.0056 7.1612C5.08828 7.09964 5.17044 7.03751 5.25246 6.97518C5.41279 6.85327 5.57246 6.73078 5.73415 6.6103C5.62604 6.94563 5.49913 7.28096 5.35812 7.61629C4.95389 8.84259 4.74238 10.1025 4.72358 11.4007C3.32759 12.2822 2.1995 13.4319 1.33933 14.8498Z" fill="#D9D9D9"/>
<path d="M1.33933 14.8498C1.29232 14.7348 1.27823 14.6055 1.29232 14.4666C1.44274 12.0474 2.31701 9.95406 3.92452 8.19114L4.46506 7.64024L4.46582 7.63938L4.46933 7.63602L4.47243 7.6331L4.4884 7.61796C4.60745 7.50548 4.68091 7.43607 4.73838 7.38366C4.77199 7.3531 4.80014 7.32829 4.82877 7.30405C4.86365 7.27449 4.89918 7.24575 4.94609 7.20843L5.0056 7.1612C5.08828 7.09964 5.17044 7.03751 5.25246 6.97518C5.41279 6.85327 5.57246 6.73078 5.73415 6.6103C5.62604 6.94563 5.49913 7.28096 5.35812 7.61629C4.95389 8.84259 4.74238 10.1025 4.72358 11.4007C3.32759 12.2822 2.1995 13.4319 1.33933 14.8498Z" fill="url(#paint17_radial_155_529)"/>
<path d="M15.9575 6.61039C16.0139 6.51933 16.075 6.4331 16.1455 6.34692C14.6837 5.45106 13.1044 5.01514 11.3981 5.02956C10.5991 6.40436 10.1619 7.88939 10.082 9.48464V9.86788L10.2935 9.89231L10.5521 9.91578C11.2994 9.97801 12.0374 10.1025 12.7612 10.299C13.3958 10.5097 14.0256 10.7492 14.6414 11.0176C14.679 10.3038 14.7918 9.59952 14.9704 8.90979C15.2242 8.11449 15.5532 7.34802 15.9575 6.61039Z" fill="#D9D9D9"/>
<path d="M15.9575 6.61039C16.0139 6.51933 16.075 6.4331 16.1455 6.34692C14.6837 5.45106 13.1044 5.01514 11.3981 5.02956C10.5991 6.40436 10.1619 7.88939 10.082 9.48464V9.86788L10.2935 9.89231L10.5521 9.91578C11.2994 9.97801 12.0374 10.1025 12.7612 10.299C13.3958 10.5097 14.0256 10.7492 14.6414 11.0176C14.679 10.3038 14.7918 9.59952 14.9704 8.90979C15.2242 8.11449 15.5532 7.34802 15.9575 6.61039Z" fill="url(#paint18_radial_155_529)"/>
<path d="M19.5002 10.4862L19.4503 10.5749C19.4299 10.6108 19.4094 10.6465 19.3885 10.6822C19.0736 11.4247 18.8198 12.1911 18.6365 12.9816C18.5613 13.4893 18.4908 14.002 18.425 14.5145C18.1335 14.112 17.8468 13.7145 17.5554 13.3169C17.0196 12.7516 16.4414 12.239 15.8163 11.784C15.5013 11.5588 15.1723 11.3528 14.8292 11.1612C14.7822 11.0031 14.7822 10.8403 14.8292 10.6822C14.8997 9.99708 15.0407 9.32642 15.2522 8.67018C15.506 7.87023 15.8586 7.11804 16.3098 6.41868C16.9726 6.82108 17.5742 7.30012 18.1194 7.85581C18.5801 8.27741 18.9749 8.75645 19.2945 9.29293C19.4778 9.49897 19.6377 9.7336 19.7646 9.98754C19.6776 10.158 19.5906 10.3237 19.5002 10.4862Z" fill="#D9D9D9"/>
<path d="M19.5002 10.4862L19.4503 10.5749C19.4299 10.6108 19.4094 10.6465 19.3885 10.6822C19.0736 11.4247 18.8198 12.1911 18.6365 12.9816C18.5613 13.4893 18.4908 14.002 18.425 14.5145C18.1335 14.112 17.8468 13.7145 17.5554 13.3169C17.0196 12.7516 16.4414 12.239 15.8163 11.784C15.5013 11.5588 15.1723 11.3528 14.8292 11.1612C14.7822 11.0031 14.7822 10.8403 14.8292 10.6822C14.8997 9.99708 15.0407 9.32642 15.2522 8.67018C15.506 7.87023 15.8586 7.11804 16.3098 6.41868C16.9726 6.82108 17.5742 7.30012 18.1194 7.85581C18.5801 8.27741 18.9749 8.75645 19.2945 9.29293C19.4778 9.49897 19.6377 9.7336 19.7646 9.98754C19.6776 10.158 19.5906 10.3237 19.5002 10.4862Z" fill="url(#paint19_radial_155_529)"/>
<path d="M9.00116 15.1372C9.64981 14.9935 10.3079 14.9169 10.9753 14.8977C10.6792 14.2462 10.4254 13.5756 10.2233 12.8857C10.0728 12.2535 9.98823 11.6407 9.91773 10.994C9.87857 10.6347 9.87072 10.3952 9.84722 10.0834C8.11749 10.1025 6.50057 10.5576 5.00586 11.4486C5.01056 13.1492 5.44299 14.7301 6.29846 16.1911C6.38565 16.1326 6.47397 16.0765 6.56229 16.0221L6.65051 15.9682L6.70917 15.9329C6.75265 15.9069 6.79599 15.8811 6.839 15.8558C7.53935 15.5588 8.2632 15.3193 9.00116 15.1372Z" fill="#D9D9D9"/>
<path d="M9.00116 15.1372C9.64981 14.9935 10.3079 14.9169 10.9753 14.8977C10.6792 14.2462 10.4254 13.5756 10.2233 12.8857C10.0728 12.2535 9.98823 11.6407 9.91773 10.994C9.87857 10.6347 9.87072 10.3952 9.84722 10.0834C8.11749 10.1025 6.50057 10.5576 5.00586 11.4486C5.01056 13.1492 5.44299 14.7301 6.29846 16.1911C6.38565 16.1326 6.47397 16.0765 6.56229 16.0221L6.65051 15.9682L6.70917 15.9329C6.75265 15.9069 6.79599 15.8811 6.839 15.8558C7.53935 15.5588 8.2632 15.3193 9.00116 15.1372Z" fill="url(#paint20_radial_155_529)"/>
<path d="M3.4552 18.4905C4.24485 17.6138 5.13792 16.8713 6.1344 16.263C5.53745 15.2091 5.12852 14.0834 4.9123 12.8857C4.87 12.4498 4.8136 12.0187 4.74779 11.5923C3.26718 12.5265 2.10618 13.772 1.26953 15.3289C1.29303 16.9671 1.70197 18.5001 2.49162 19.9277C2.77835 19.4199 3.10267 18.9408 3.4552 18.4905Z" fill="#D9D9D9"/>
<path d="M3.4552 18.4905C4.24485 17.6138 5.13792 16.8713 6.1344 16.263C5.53745 15.2091 5.12852 14.0834 4.9123 12.8857C4.87 12.4498 4.8136 12.0187 4.74779 11.5923C3.26718 12.5265 2.10618 13.772 1.26953 15.3289C1.29303 16.9671 1.70197 18.5001 2.49162 19.9277C2.77835 19.4199 3.10267 18.9408 3.4552 18.4905Z" fill="url(#paint21_radial_155_529)"/>
<path d="M15.2762 15.76C14.8766 15.5828 14.4771 15.4247 14.0776 15.281C13.5041 15.1325 12.926 15.0175 12.3384 14.9456C11.9624 14.9121 11.5864 14.8882 11.2104 14.8738C11.1257 14.7445 11.0646 14.6103 11.0223 14.4666C10.7121 13.8822 10.4912 13.2594 10.3643 12.5983C10.1199 11.7792 10.0259 10.9408 10.0823 10.0834C10.9189 10.0881 11.7321 10.2079 12.5265 10.4426C13.1469 10.5768 13.725 10.7971 14.2656 11.1133C14.4207 11.1372 14.5335 11.2138 14.5946 11.3528C14.5382 11.736 14.5382 12.1193 14.5946 12.5025C14.6322 13.1636 14.7262 13.8199 14.8766 14.4666L14.8776 14.4696C15.0136 14.8998 15.1496 15.3299 15.2762 15.76Z" fill="#D9D9D9"/>
<path d="M15.2762 15.76C14.8766 15.5828 14.4771 15.4247 14.0776 15.281C13.5041 15.1325 12.926 15.0175 12.3384 14.9456C11.9624 14.9121 11.5864 14.8882 11.2104 14.8738C11.1257 14.7445 11.0646 14.6103 11.0223 14.4666C10.7121 13.8822 10.4912 13.2594 10.3643 12.5983C10.1199 11.7792 10.0259 10.9408 10.0823 10.0834C10.9189 10.0881 11.7321 10.2079 12.5265 10.4426C13.1469 10.5768 13.725 10.7971 14.2656 11.1133C14.4207 11.1372 14.5335 11.2138 14.5946 11.3528C14.5382 11.736 14.5382 12.1193 14.5946 12.5025C14.6322 13.1636 14.7262 13.8199 14.8766 14.4666L14.8776 14.4696C15.0136 14.8998 15.1496 15.3299 15.2762 15.76Z" fill="url(#paint22_radial_155_529)"/>
<path d="M2.37385 20.1193C1.62179 18.7253 1.18465 17.2402 1.05775 15.6642C-0.310058 18.6487 -0.319468 21.633 1.03425 24.6223C1.16115 23.027 1.60768 21.5229 2.37385 20.1193Z" fill="#D9D9D9"/>
<path d="M2.37385 20.1193C1.62179 18.7253 1.18465 17.2402 1.05775 15.6642C-0.310058 18.6487 -0.319468 21.633 1.03425 24.6223C1.16115 23.027 1.60768 21.5229 2.37385 20.1193Z" fill="url(#paint23_radial_155_529)"/>
<path d="M13.9837 18.4666C13.5231 18.5337 13.0718 18.6198 12.6206 18.7301C12.0237 18.8594 11.4455 19.0318 10.8815 19.257C10.5243 19.4294 10.1717 19.621 9.8239 19.8319C9.80077 19.8165 9.77793 19.8007 9.75527 19.7845C9.73502 19.77 9.71499 19.7552 9.6952 19.7402C9.66442 19.7167 9.63419 19.6926 9.60468 19.6679C9.57516 19.6432 9.54634 19.618 9.51838 19.5923C8.97784 19.281 8.4937 18.8977 8.06127 18.4426C7.41262 17.8199 6.84858 17.1253 6.36914 16.3588C7.1306 15.8941 7.94376 15.5684 8.81332 15.3768C9.44317 15.1995 10.0824 15.1037 10.7405 15.0893C10.8721 15.0749 10.9943 15.0893 11.1165 15.1372C11.3045 15.4869 11.5066 15.8222 11.7275 16.1432C12.0895 16.6558 12.4984 17.1348 12.9496 17.5804C13.2881 17.8821 13.6312 18.1792 13.9837 18.4666Z" fill="#D9D9D9"/>
<path d="M13.9837 18.4666C13.5231 18.5337 13.0718 18.6198 12.6206 18.7301C12.0237 18.8594 11.4455 19.0318 10.8815 19.257C10.5243 19.4294 10.1717 19.621 9.8239 19.8319C9.80077 19.8165 9.77793 19.8007 9.75527 19.7845C9.73502 19.77 9.71499 19.7552 9.6952 19.7402C9.66442 19.7167 9.63419 19.6926 9.60468 19.6679C9.57516 19.6432 9.54634 19.618 9.51838 19.5923C8.97784 19.281 8.4937 18.8977 8.06127 18.4426C7.41262 17.8199 6.84858 17.1253 6.36914 16.3588C7.1306 15.8941 7.94376 15.5684 8.81332 15.3768C9.44317 15.1995 10.0824 15.1037 10.7405 15.0893C10.8721 15.0749 10.9943 15.0893 11.1165 15.1372C11.3045 15.4869 11.5066 15.8222 11.7275 16.1432C12.0895 16.6558 12.4984 17.1348 12.9496 17.5804C13.2881 17.8821 13.6312 18.1792 13.9837 18.4666Z" fill="url(#paint24_radial_155_529)"/>
<path d="M7.99477 21.1842C8.51035 20.7352 9.05404 20.3291 9.63528 19.9661C9.08219 19.5839 8.55251 19.1778 8.04163 18.7479C7.77916 18.4566 7.50264 18.1699 7.22137 17.8881C7.00107 17.5919 6.77606 17.3053 6.54175 17.0282C6.43862 16.8323 6.32144 16.6412 6.19021 16.455C5.06997 17.0951 4.12784 17.9359 3.35444 18.9868C3.04978 19.3307 2.80137 19.7129 2.60449 20.1333C2.8248 20.5823 3.08727 20.9932 3.4013 21.3753C4.11845 22.2925 4.96215 23.0616 5.93239 23.6922C5.96675 23.7176 5.99904 23.7218 6.02922 23.7062C6.04436 23.6984 6.05893 23.6857 6.07298 23.6682C6.20426 23.4199 6.3449 23.181 6.49488 22.9517C6.94015 22.3211 7.43698 21.7287 7.99477 21.1842Z" fill="#D9D9D9"/>
<path d="M7.99477 21.1842C8.51035 20.7352 9.05404 20.3291 9.63528 19.9661C9.08219 19.5839 8.55251 19.1778 8.04163 18.7479C7.77916 18.4566 7.50264 18.1699 7.22137 17.8881C7.00107 17.5919 6.77606 17.3053 6.54175 17.0282C6.43862 16.8323 6.32144 16.6412 6.19021 16.455C5.06997 17.0951 4.12784 17.9359 3.35444 18.9868C3.04978 19.3307 2.80137 19.7129 2.60449 20.1333C2.8248 20.5823 3.08727 20.9932 3.4013 21.3753C4.11845 22.2925 4.96215 23.0616 5.93239 23.6922C5.96675 23.7176 5.99904 23.7218 6.02922 23.7062C6.04436 23.6984 6.05893 23.6857 6.07298 23.6682C6.20426 23.4199 6.3449 23.181 6.49488 22.9517C6.94015 22.3211 7.43698 21.7287 7.99477 21.1842Z" fill="url(#paint25_radial_155_529)"/>
<path d="M2.41709 20.3721C2.46396 20.3674 2.50146 20.3817 2.53426 20.4199C3.40139 21.8578 4.53101 23.0282 5.9325 23.9311C5.1544 25.4502 4.73255 27.0696 4.66693 28.7797C3.21859 27.8529 2.0843 26.6253 1.26872 25.1014C1.25935 23.4247 1.64369 21.8483 2.41709 20.3721Z" fill="#D9D9D9"/>
<path d="M2.41709 20.3721C2.46396 20.3674 2.50146 20.3817 2.53426 20.4199C3.40139 21.8578 4.53101 23.0282 5.9325 23.9311C5.1544 25.4502 4.73255 27.0696 4.66693 28.7797C3.21859 27.8529 2.0843 26.6253 1.26872 25.1014C1.25935 23.4247 1.64369 21.8483 2.41709 20.3721Z" fill="url(#paint26_radial_155_529)"/>
<path d="M4.73738 29.0662C3.3453 28.1635 2.21099 27.0026 1.33918 25.5791C1.29231 25.7272 1.27825 25.8896 1.29231 26.0568C1.61572 29.4294 3.18125 32.0089 5.9795 33.7955C5.2061 32.3195 4.79364 30.743 4.73738 29.0662Z" fill="#D9D9D9"/>
<path d="M4.73738 29.0662C3.3453 28.1635 2.21099 27.0026 1.33918 25.5791C1.29231 25.7272 1.27825 25.8896 1.29231 26.0568C1.61572 29.4294 3.18125 32.0089 5.9795 33.7955C5.2061 32.3195 4.79364 30.743 4.73738 29.0662Z" fill="url(#paint27_radial_155_529)"/>
<path d="M13.9832 21.4606C13.7153 21.7049 13.4333 21.9252 13.1372 22.1313C12.6295 22.6629 12.1595 23.2186 11.7271 23.8079C11.4263 24.2295 11.1583 24.6749 10.928 25.1492C10.9045 25.1876 10.8763 25.2019 10.834 25.1971C10.2089 25.1971 9.59782 25.1157 9.00088 24.9576C7.9997 24.7468 7.05963 24.3732 6.18066 23.8319C6.6742 22.9217 7.30405 22.1121 8.06081 21.4127C8.49324 20.9576 8.97737 20.5744 9.51791 20.263C9.59782 20.1719 9.70123 20.1098 9.82344 20.0714C9.92092 20.1249 10.0188 20.1778 10.1168 20.2298C10.2342 20.2924 10.3518 20.3538 10.4693 20.4144C10.6226 20.4933 10.7757 20.5706 10.928 20.6462C11.5673 20.8953 12.2253 21.0869 12.9022 21.2211C13.2265 21.3025 13.5555 21.3504 13.8892 21.3648L13.9832 21.4606Z" fill="#D9D9D9"/>
<path d="M13.9832 21.4606C13.7153 21.7049 13.4333 21.9252 13.1372 22.1313C12.6295 22.6629 12.1595 23.2186 11.7271 23.8079C11.4263 24.2295 11.1583 24.6749 10.928 25.1492C10.9045 25.1876 10.8763 25.2019 10.834 25.1971C10.2089 25.1971 9.59782 25.1157 9.00088 24.9576C7.9997 24.7468 7.05963 24.3732 6.18066 23.8319C6.6742 22.9217 7.30405 22.1121 8.06081 21.4127C8.49324 20.9576 8.97737 20.5744 9.51791 20.263C9.59782 20.1719 9.70123 20.1098 9.82344 20.0714C9.92092 20.1249 10.0188 20.1778 10.1168 20.2298C10.2342 20.2924 10.3518 20.3538 10.4693 20.4144C10.6226 20.4933 10.7757 20.5706 10.928 20.6462C11.5673 20.8953 12.2253 21.0869 12.9022 21.2211C13.2265 21.3025 13.5555 21.3504 13.8892 21.3648L13.9832 21.4606Z" fill="url(#paint28_radial_155_529)"/>
<path d="M10.8347 25.4127C10.2894 26.5719 9.9745 27.7935 9.89459 29.0774V30.3229C8.11316 30.3276 6.46334 29.863 4.93572 28.9337C4.89342 27.1804 5.28355 25.5325 6.11081 23.9995C6.39753 24.1719 6.68895 24.3348 6.98037 24.4786C8.21187 25.0199 9.49506 25.3313 10.8347 25.4127Z" fill="#D9D9D9"/>
<path d="M10.8347 25.4127C10.2894 26.5719 9.9745 27.7935 9.89459 29.0774V30.3229C8.11316 30.3276 6.46334 29.863 4.93572 28.9337C4.89342 27.1804 5.28355 25.5325 6.11081 23.9995C6.39753 24.1719 6.68895 24.3348 6.98037 24.4786C8.21187 25.0199 9.49506 25.3313 10.8347 25.4127Z" fill="url(#paint29_radial_155_529)"/>
<path d="M14.6419 27.4965C14.7688 26.4522 15.0509 25.4511 15.488 24.5025C14.9381 24.7133 14.374 24.9049 13.7959 25.0774C13.3916 25.1827 12.9827 25.269 12.5738 25.3408L12.4105 25.3528L12.276 25.3623L12.1387 25.3718C12.0291 25.3793 11.9196 25.3865 11.81 25.3934C11.5476 25.4099 11.2851 25.4245 11.0227 25.4366C10.7124 26.021 10.4915 26.6438 10.3646 27.3049C10.1061 28.2869 9.99799 29.2929 10.0356 30.3229C11.0415 30.3468 12.0144 30.1839 12.9498 29.8438C13.3399 29.748 13.716 29.6138 14.0779 29.4366C14.2659 29.3648 14.421 29.2642 14.5479 29.1253C14.5573 28.5791 14.5855 28.0379 14.6419 27.4965Z" fill="#D9D9D9"/>
<path d="M14.6419 27.4965C14.7688 26.4522 15.0509 25.4511 15.488 24.5025C14.9381 24.7133 14.374 24.9049 13.7959 25.0774C13.3916 25.1827 12.9827 25.269 12.5738 25.3408L12.4105 25.3528L12.276 25.3623L12.1387 25.3718C12.0291 25.3793 11.9196 25.3865 11.81 25.3934C11.5476 25.4099 11.2851 25.4245 11.0227 25.4366C10.7124 26.021 10.4915 26.6438 10.3646 27.3049C10.1061 28.2869 9.99799 29.2929 10.0356 30.3229C11.0415 30.3468 12.0144 30.1839 12.9498 29.8438C13.3399 29.748 13.716 29.6138 14.0779 29.4366C14.2659 29.3648 14.421 29.2642 14.5479 29.1253C14.5573 28.5791 14.5855 28.0379 14.6419 27.4965Z" fill="url(#paint30_radial_155_529)"/>
<path d="M11.3988 35.3528C9.62677 35.3672 7.96754 34.9408 6.41643 34.0834C5.52336 32.6797 5.03452 31.1372 4.95932 29.4606C4.94522 29.3695 4.95932 29.2881 5.00632 29.2211C5.52336 29.475 6.0404 29.7145 6.55744 29.9396C7.63852 30.3037 8.7525 30.4953 9.89469 30.5145C9.98399 31.7456 10.266 32.9289 10.7408 34.0594C10.9711 34.4857 11.192 34.9169 11.3988 35.3528Z" fill="#D9D9D9"/>
<path d="M11.3988 35.3528C9.62677 35.3672 7.96754 34.9408 6.41643 34.0834C5.52336 32.6797 5.03452 31.1372 4.95932 29.4606C4.94522 29.3695 4.95932 29.2881 5.00632 29.2211C5.52336 29.475 6.0404 29.7145 6.55744 29.9396C7.63852 30.3037 8.7525 30.4953 9.89469 30.5145C9.98399 31.7456 10.266 32.9289 10.7408 34.0594C10.9711 34.4857 11.192 34.9169 11.3988 35.3528Z" fill="url(#paint31_radial_155_529)"/>
<path d="M11.6331 35.281C13.1937 35.2475 14.6508 34.8306 16.0045 34.0354C15.8541 33.7864 15.7131 33.542 15.5814 33.2929C15.0268 32.0426 14.6884 30.7348 14.5709 29.3648C13.4334 29.9875 12.2207 30.3564 10.9281 30.4666C10.6461 30.5001 10.3641 30.5145 10.082 30.5145C10.1901 32.2438 10.7072 33.8343 11.6331 35.281Z" fill="#D9D9D9"/>
<path d="M11.6331 35.281C13.1937 35.2475 14.6508 34.8306 16.0045 34.0354C15.8541 33.7864 15.7131 33.542 15.5814 33.2929C15.0268 32.0426 14.6884 30.7348 14.5709 29.3648C13.4334 29.9875 12.2207 30.3564 10.9281 30.4666C10.6461 30.5001 10.3641 30.5145 10.082 30.5145C10.1901 32.2438 10.7072 33.8343 11.6331 35.281Z" fill="url(#paint32_radial_155_529)"/>
<path d="M6.83912 34.5384C8.34794 35.2235 9.93196 35.5588 11.5865 35.5444C12.5219 36.9671 13.7251 38.0786 15.2058 38.8738C12.1458 38.9456 9.56533 37.8534 7.47367 35.5923C7.20105 35.2762 6.95663 34.9408 6.74512 34.5863C6.75922 34.548 6.79212 34.5289 6.83912 34.5384Z" fill="#D9D9D9"/>
<path d="M6.83912 34.5384C8.34794 35.2235 9.93196 35.5588 11.5865 35.5444C12.5219 36.9671 13.7251 38.0786 15.2058 38.8738C12.1458 38.9456 9.56533 37.8534 7.47367 35.5923C7.20105 35.2762 6.95663 34.9408 6.74512 34.5863C6.75922 34.548 6.79212 34.5289 6.83912 34.5384Z" fill="url(#paint33_radial_155_529)"/>
<path d="M19.577 37.6762C18.1293 36.7995 16.9542 35.645 16.0517 34.2031C14.7262 34.96 13.2973 35.4007 11.7744 35.5205C12.7803 37.0007 14.0823 38.1265 15.6757 38.8977C17.0623 38.7635 18.3596 38.3564 19.577 37.6762Z" fill="#D9D9D9"/>
<path d="M19.577 37.6762C18.1293 36.7995 16.9542 35.645 16.0517 34.2031C14.7262 34.96 13.2973 35.4007 11.7744 35.5205C12.7803 37.0007 14.0823 38.1265 15.6757 38.8977C17.0623 38.7635 18.3596 38.3564 19.577 37.6762Z" fill="url(#paint34_radial_155_529)"/>
<path d="M23.9487 39.0659C23.8077 39.1377 23.9487 39.0659 23.8077 39.1372C21.64 40.2346 19.2719 40.1432 16.9452 39.4486C16.6397 39.3433 16.2026 39.1521 15.9111 39.018C15.9581 39.018 15.9581 39.018 16.1932 38.9935C17.4575 38.8259 18.6514 38.4234 19.7654 37.7959C21.011 38.5001 22.5292 38.9413 23.9487 39.0659Z" fill="#D9D9D9"/>
<path d="M23.9487 39.0659C23.8077 39.1377 23.9487 39.0659 23.8077 39.1372C21.64 40.2346 19.2719 40.1432 16.9452 39.4486C16.6397 39.3433 16.2026 39.1521 15.9111 39.018C15.9581 39.018 15.9581 39.018 16.1932 38.9935C17.4575 38.8259 18.6514 38.4234 19.7654 37.7959C21.011 38.5001 22.5292 38.9413 23.9487 39.0659Z" fill="url(#paint35_radial_155_529)"/>
<path d="M19.4827 30.7061C19.6002 30.5624 19.6942 30.4043 19.7647 30.2271C19.6331 29.8917 19.4733 29.5708 19.2947 29.269C19.0268 28.6127 18.8059 27.9421 18.6367 27.257C18.5802 26.8115 18.5144 26.3613 18.4486 25.9157C18.3076 26.1001 18.1666 26.2833 18.0256 26.4666L17.9954 26.5059C17.8644 26.6761 17.7335 26.8463 17.6026 27.0175C17.1607 27.53 16.6766 27.9947 16.1455 28.4067C15.7224 28.7181 15.2853 29.0055 14.8294 29.269C14.7871 29.9301 14.867 30.5864 15.0644 31.2331C15.2806 32.2056 15.6519 33.1157 16.169 33.9636C16.9962 33.4653 17.7436 32.857 18.4016 32.1432C18.8059 31.6977 19.1678 31.2186 19.4827 30.7061Z" fill="#D9D9D9"/>
<path d="M19.4827 30.7061C19.6002 30.5624 19.6942 30.4043 19.7647 30.2271C19.6331 29.8917 19.4733 29.5708 19.2947 29.269C19.0268 28.6127 18.8059 27.9421 18.6367 27.257C18.5802 26.8115 18.5144 26.3613 18.4486 25.9157C18.3076 26.1001 18.1666 26.2833 18.0256 26.4666L17.9954 26.5059C17.8644 26.6761 17.7335 26.8463 17.6026 27.0175C17.1607 27.53 16.6766 27.9947 16.1455 28.4067C15.7224 28.7181 15.2853 29.0055 14.8294 29.269C14.7871 29.9301 14.867 30.5864 15.0644 31.2331C15.2806 32.2056 15.6519 33.1157 16.169 33.9636C16.9962 33.4653 17.7436 32.857 18.4016 32.1432C18.8059 31.6977 19.1678 31.2186 19.4827 30.7061Z" fill="url(#paint36_radial_155_529)"/>
<path d="M38.4252 26.1073C38.4346 26.0594 38.4158 26.0259 38.3782 26.0115C37.424 27.3912 36.2255 28.493 34.7824 29.3169C34.6978 30.8546 34.3171 32.3061 33.6309 33.6762C33.6309 33.7097 33.645 33.7241 33.6779 33.7241C36.4746 32.0239 38.0398 29.4366 38.4252 26.1073Z" fill="#D9D9D9"/>
<path d="M38.4252 26.1073C38.4346 26.0594 38.4158 26.0259 38.3782 26.0115C37.424 27.3912 36.2255 28.493 34.7824 29.3169C34.6978 30.8546 34.3171 32.3061 33.6309 33.6762C33.6309 33.7097 33.645 33.7241 33.6779 33.7241C36.4746 32.0239 38.0398 29.4366 38.4252 26.1073Z" fill="url(#paint37_radial_155_529)"/>
<path d="M23.3838 33.9396C22.7116 35.1756 21.8045 36.1864 20.6576 36.9816C20.385 37.2115 20.0888 37.4032 19.7645 37.5564C19.4261 37.384 19.1112 37.1779 18.8245 36.9337C17.7951 36.1624 16.9349 35.2283 16.2393 34.1313C16.4026 34.0248 16.5659 33.9204 16.7292 33.8154C16.8009 33.7692 16.8726 33.7229 16.9443 33.6762C17.5366 33.2163 18.1006 32.7228 18.6364 32.1911C19.0924 31.6307 19.5154 31.0366 19.9055 30.4187C20.3051 31.051 20.761 31.6402 21.2686 32.1911C21.8233 32.7565 22.4202 33.269 23.0548 33.7241C23.1817 33.772 23.2898 33.8438 23.3838 33.9396Z" fill="#D9D9D9"/>
<path d="M23.3838 33.9396C22.7116 35.1756 21.8045 36.1864 20.6576 36.9816C20.385 37.2115 20.0888 37.4032 19.7645 37.5564C19.4261 37.384 19.1112 37.1779 18.8245 36.9337C17.7951 36.1624 16.9349 35.2283 16.2393 34.1313C16.4026 34.0248 16.5659 33.9204 16.7292 33.8154C16.8009 33.7692 16.8726 33.7229 16.9443 33.6762C17.5366 33.2163 18.1006 32.7228 18.6364 32.1911C19.0924 31.6307 19.5154 31.0366 19.9055 30.4187C20.3051 31.051 20.761 31.6402 21.2686 32.1911C21.8233 32.7565 22.4202 33.269 23.0548 33.7241C23.1817 33.772 23.2898 33.8438 23.3838 33.9396Z" fill="url(#paint38_radial_155_529)"/>
<path d="M24.3714 38.8738C25.9648 38.0499 27.2668 36.881 28.2727 35.3768C27.8967 35.3289 27.5206 35.2857 27.1446 35.257C25.8849 35.0654 24.7004 34.6487 23.5958 34.0115C22.9143 35.0941 22.0917 36.0522 21.1281 36.8857C20.944 37.0174 20.7415 37.1479 20.54 37.2777C20.4268 37.3508 20.3139 37.4236 20.2046 37.4963L20.1435 37.5373C20.0864 37.5758 20.0306 37.6142 19.9766 37.6527C20.1411 37.7741 19.9766 37.6527 20.0941 37.748C21.4243 38.4905 22.8485 38.8642 24.3714 38.8738Z" fill="#D9D9D9"/>
<path d="M24.3714 38.8738C25.9648 38.0499 27.2668 36.881 28.2727 35.3768C27.8967 35.3289 27.5206 35.2857 27.1446 35.257C25.8849 35.0654 24.7004 34.6487 23.5958 34.0115C22.9143 35.0941 22.0917 36.0522 21.1281 36.8857C20.944 37.0174 20.7415 37.1479 20.54 37.2777C20.4268 37.3508 20.3139 37.4236 20.2046 37.4963L20.1435 37.5373C20.0864 37.5758 20.0306 37.6142 19.9766 37.6527C20.1411 37.7741 19.9766 37.6527 20.0941 37.748C21.4243 38.4905 22.8485 38.8642 24.3714 38.8738Z" fill="url(#paint39_radial_155_529)"/>
<path d="M32.8787 34.3468C32.9492 34.3468 32.9727 34.3803 32.9492 34.4426C30.9468 37.3121 28.2159 38.7875 24.7471 38.8738C26.2747 38.045 27.5156 36.8857 28.4603 35.4007C29.72 35.3623 30.9421 35.1277 32.1266 34.7061C32.3898 34.6103 32.6437 34.4905 32.8787 34.3468Z" fill="#D9D9D9"/>
<path d="M32.8787 34.3468C32.9492 34.3468 32.9727 34.3803 32.9492 34.4426C30.9468 37.3121 28.2159 38.7875 24.7471 38.8738C26.2747 38.045 27.5156 36.8857 28.4603 35.4007C29.72 35.3623 30.9421 35.1277 32.1266 34.7061C32.3898 34.6103 32.6437 34.4905 32.8787 34.3468Z" fill="url(#paint40_radial_155_529)"/>
<path d="M38.4956 25.4366C37.5837 26.9743 36.3616 28.1863 34.8293 29.0774L34.7588 27.736C34.6131 26.4331 34.2512 25.1971 33.6777 24.0235C34.7729 23.3144 35.7271 22.4426 36.5449 21.4127C36.8129 21.039 37.0714 20.6558 37.3205 20.263C38.1619 21.8822 38.552 23.6068 38.4956 25.4366Z" fill="#D9D9D9"/>
<path d="M38.4956 25.4366C37.5837 26.9743 36.3616 28.1863 34.8293 29.0774L34.7588 27.736C34.6131 26.4331 34.2512 25.1971 33.6777 24.0235C34.7729 23.3144 35.7271 22.4426 36.5449 21.4127C36.8129 21.039 37.0714 20.6558 37.3205 20.263C38.1619 21.8822 38.552 23.6068 38.4956 25.4366Z" fill="url(#paint41_radial_155_529)"/>
<path d="M33.3964 23.9038C32.682 24.354 31.9158 24.675 31.0933 24.8618C30.4399 25.0869 29.7725 25.1828 29.0909 25.154C29.0674 25.154 29.0486 25.154 29.0251 25.1493C28.8089 24.6942 28.5598 24.263 28.2731 23.8559C27.8077 23.1708 27.2578 22.5576 26.6279 22.0115C27.4646 21.796 28.2778 21.5133 29.0721 21.1732C29.4622 20.9432 29.8524 20.7132 30.2472 20.4786C30.3412 20.4498 30.4211 20.4737 30.4822 20.5505C31.0087 20.9145 31.4787 21.3456 31.8923 21.8439C32.494 22.4522 32.9969 23.1373 33.3964 23.9038Z" fill="#D9D9D9"/>
<path d="M33.3964 23.9038C32.682 24.354 31.9158 24.675 31.0933 24.8618C30.4399 25.0869 29.7725 25.1828 29.0909 25.154C29.0674 25.154 29.0486 25.154 29.0251 25.1493C28.8089 24.6942 28.5598 24.263 28.2731 23.8559C27.8077 23.1708 27.2578 22.5576 26.6279 22.0115C27.4646 21.796 28.2778 21.5133 29.0721 21.1732C29.4622 20.9432 29.8524 20.7132 30.2472 20.4786C30.3412 20.4498 30.4211 20.4737 30.4822 20.5505C31.0087 20.9145 31.4787 21.3456 31.8923 21.8439C32.494 22.4522 32.9969 23.1373 33.3964 23.9038Z" fill="url(#paint42_radial_155_529)"/>
<path d="M30.0592 30.3229C31.6714 30.342 33.1849 29.9588 34.5951 29.1732C34.6938 27.3672 34.3177 25.6762 33.467 24.0953C33.3863 24.1392 33.3087 24.1831 33.2332 24.2287C33.1769 24.2628 33.1217 24.298 33.0674 24.3349C32.4094 24.6462 31.7372 24.9049 31.0463 25.1013C30.407 25.2355 29.7678 25.336 29.1191 25.4127C29.3824 25.9828 29.5986 26.5671 29.7772 27.1612C29.9041 27.7647 29.9981 28.3683 30.0592 28.9816V30.3229Z" fill="#D9D9D9"/>
<path d="M30.0592 30.3229C31.6714 30.342 33.1849 29.9588 34.5951 29.1732C34.6938 27.3672 34.3177 25.6762 33.467 24.0953C33.3863 24.1392 33.3087 24.1831 33.2332 24.2287C33.1769 24.2628 33.1217 24.298 33.0674 24.3349C32.4094 24.6462 31.7372 24.9049 31.0463 25.1013C30.407 25.2355 29.7678 25.336 29.1191 25.4127C29.3824 25.9828 29.5986 26.5671 29.7772 27.1612C29.9041 27.7647 29.9981 28.3683 30.0592 28.9816V30.3229Z" fill="url(#paint43_radial_155_529)"/>
<path d="M24.7472 29.7241C24.7096 30.3229 24.6156 30.7971 24.4652 31.3768C24.2396 32.2151 23.92 33.015 23.5016 33.772C22.759 33.3264 22.0915 32.7852 21.504 32.1432C21.0433 31.7216 20.6532 31.2426 20.3289 30.7061C20.2161 30.5576 20.1221 30.3995 20.0469 30.2271C20.1926 29.8822 20.3477 29.5469 20.5169 29.2211C20.7895 28.5217 20.9916 27.8031 21.128 27.0654C21.2126 26.5529 21.2831 26.0402 21.3395 25.5325C21.5886 25.9683 21.8612 26.3852 22.162 26.778C22.6979 27.372 23.2619 27.9277 23.8542 28.4546C24.1644 28.651 24.4699 28.857 24.7707 29.0774C24.7707 29.1534 24.7707 29.2161 24.7703 29.272C24.77 29.3147 24.7694 29.3534 24.7683 29.3913C24.7656 29.4908 24.7598 29.5836 24.7472 29.7241Z" fill="#D9D9D9"/>
<path d="M24.7472 29.7241C24.7096 30.3229 24.6156 30.7971 24.4652 31.3768C24.2396 32.2151 23.92 33.015 23.5016 33.772C22.759 33.3264 22.0915 32.7852 21.504 32.1432C21.0433 31.7216 20.6532 31.2426 20.3289 30.7061C20.2161 30.5576 20.1221 30.3995 20.0469 30.2271C20.1926 29.8822 20.3477 29.5469 20.5169 29.2211C20.7895 28.5217 20.9916 27.8031 21.128 27.0654C21.2126 26.5529 21.2831 26.0402 21.3395 25.5325C21.5886 25.9683 21.8612 26.3852 22.162 26.778C22.6979 27.372 23.2619 27.9277 23.8542 28.4546C24.1644 28.651 24.4699 28.857 24.7707 29.0774C24.7707 29.1534 24.7707 29.2161 24.7703 29.272C24.77 29.3147 24.7694 29.3534 24.7683 29.3913C24.7656 29.4908 24.7598 29.5836 24.7472 29.7241Z" fill="url(#paint44_radial_155_529)"/>
<path d="M27.0033 29.8438C27.9434 30.1792 28.9117 30.3373 29.9176 30.3229C29.9552 29.2929 29.8471 28.2869 29.5885 27.3049C29.4616 26.6966 29.2595 26.1217 28.9775 25.5804C28.9916 25.4941 28.9587 25.4271 28.8835 25.3887C28.3993 25.4271 27.9105 25.4127 27.4264 25.3408C26.7213 25.269 26.0304 25.1253 25.3582 24.9097L25.1669 24.833L24.9532 24.7466L24.6723 24.6325L24.6686 24.631L24.3568 24.5044C24.2365 24.4556 24.116 24.4071 23.9951 24.3588C24.2066 24.8091 24.3946 25.2642 24.5592 25.7241C24.7378 26.4187 24.8647 27.118 24.9352 27.8319C24.9681 28.1959 24.9916 28.5648 25.0057 28.9337C25.1937 29.0534 25.1937 29.0534 25.4757 29.1971C26.0654 29.4826 26.2852 29.5889 26.5122 29.676C26.647 29.7276 26.7844 29.7725 27.0033 29.8438Z" fill="#D9D9D9"/>
<path d="M27.0033 29.8438C27.9434 30.1792 28.9117 30.3373 29.9176 30.3229C29.9552 29.2929 29.8471 28.2869 29.5885 27.3049C29.4616 26.6966 29.2595 26.1217 28.9775 25.5804C28.9916 25.4941 28.9587 25.4271 28.8835 25.3887C28.3993 25.4271 27.9105 25.4127 27.4264 25.3408C26.7213 25.269 26.0304 25.1253 25.3582 24.9097L25.1669 24.833L24.9532 24.7466L24.6723 24.6325L24.6686 24.631L24.3568 24.5044C24.2365 24.4556 24.116 24.4071 23.9951 24.3588C24.2066 24.8091 24.3946 25.2642 24.5592 25.7241C24.7378 26.4187 24.8647 27.118 24.9352 27.8319C24.9681 28.1959 24.9916 28.5648 25.0057 28.9337C25.1937 29.0534 25.1937 29.0534 25.4757 29.1971C26.0654 29.4826 26.2852 29.5889 26.5122 29.676C26.647 29.7276 26.7844 29.7725 27.0033 29.8438Z" fill="url(#paint45_radial_155_529)"/>
<path d="M29.8705 30.5145C29.7718 32.1863 29.2876 33.7241 28.4134 35.1372C26.7165 35.1468 25.1325 34.7156 23.666 33.8438C23.6832 33.8109 23.7004 33.7785 23.7177 33.7466C23.7382 33.7089 23.7588 33.6718 23.7798 33.6352C23.8186 33.5673 23.8586 33.5014 23.901 33.4366C24.216 32.7612 24.4651 32.057 24.6531 31.3289C24.827 30.6198 24.921 29.9013 24.9351 29.1732C25.6167 29.5037 26.3029 29.8055 27.0033 30.0834C27.6378 30.2462 28.2818 30.3755 28.9304 30.4666C29.2453 30.4905 29.5556 30.505 29.8705 30.5145Z" fill="#D9D9D9"/>
<path d="M29.8705 30.5145C29.7718 32.1863 29.2876 33.7241 28.4134 35.1372C26.7165 35.1468 25.1325 34.7156 23.666 33.8438C23.6832 33.8109 23.7004 33.7785 23.7177 33.7466C23.7382 33.7089 23.7588 33.6718 23.7798 33.6352C23.8186 33.5673 23.8586 33.5014 23.901 33.4366C24.216 32.7612 24.4651 32.057 24.6531 31.3289C24.827 30.6198 24.921 29.9013 24.9351 29.1732C25.6167 29.5037 26.3029 29.8055 27.0033 30.0834C27.6378 30.2462 28.2818 30.3755 28.9304 30.4666C29.2453 30.4905 29.5556 30.505 29.8705 30.5145Z" fill="url(#paint46_radial_155_529)"/>
<path d="M33.1609 34.0354C34.0023 32.6989 34.4723 31.2378 34.571 29.6522C34.5851 29.5756 34.5663 29.5132 34.524 29.4606C34.1433 29.6235 33.7672 29.7815 33.3959 29.9396C32.3148 30.3133 31.2009 30.505 30.0587 30.5145C29.9694 31.7456 29.6873 32.9289 29.2126 34.0594C29.0293 34.4282 28.8225 34.7875 28.6016 35.1372C30.2138 35.1707 31.732 34.8019 33.1609 34.0354Z" fill="#D9D9D9"/>
<path d="M33.1609 34.0354C34.0023 32.6989 34.4723 31.2378 34.571 29.6522C34.5851 29.5756 34.5663 29.5132 34.524 29.4606C34.1433 29.6235 33.7672 29.7815 33.3959 29.9396C32.3148 30.3133 31.2009 30.505 30.0587 30.5145C29.9694 31.7456 29.6873 32.9289 29.2126 34.0594C29.0293 34.4282 28.8225 34.7875 28.6016 35.1372C30.2138 35.1707 31.732 34.8019 33.1609 34.0354Z" fill="url(#paint47_radial_155_529)"/>
</g>
<defs>
<radialGradient id="paint0_radial_155_529" cx="0" cy="0" r="1" gradientUnits="userSpaceOnUse" gradientTransform="translate(19.9999 19.9838) rotate(90) scale(19.9838 19.9745)">
<stop offset="0.284628" stop-color="#CE4227"/>
<stop offset="1" stop-color="#F06F28"/>
</radialGradient>
<radialGradient id="paint1_radial_155_529" cx="0" cy="0" r="1" gradientUnits="userSpaceOnUse" gradientTransform="translate(19.9998 19.9837) rotate(90) scale(19.9838 19.9745)">
<stop offset="0.284628" stop-color="#CE4227"/>
<stop offset="1" stop-color="#F06F28"/>
</radialGradient>
<radialGradient id="paint2_radial_155_529" cx="0" cy="0" r="1" gradientUnits="userSpaceOnUse" gradientTransform="translate(19.9999 19.9837) rotate(90) scale(19.9838 19.9745)">
<stop offset="0.284628" stop-color="#CE4227"/>
<stop offset="1" stop-color="#F06F28"/>
</radialGradient>
<radialGradient id="paint3_radial_155_529" cx="0" cy="0" r="1" gradientUnits="userSpaceOnUse" gradientTransform="translate(19.9998 19.9837) rotate(90) scale(19.9838 19.9745)">
<stop offset="0.284628" stop-color="#CE4227"/>
<stop offset="1" stop-color="#F06F28"/>
</radialGradient>
<radialGradient id="paint4_radial_155_529" cx="0" cy="0" r="1" gradientUnits="userSpaceOnUse" gradientTransform="translate(20 19.9837) rotate(90) scale(19.9838 19.9745)">
<stop offset="0.284628" stop-color="#CE4227"/>
<stop offset="1" stop-color="#F06F28"/>
</radialGradient>
<radialGradient id="paint5_radial_155_529" cx="0" cy="0" r="1" gradientUnits="userSpaceOnUse" gradientTransform="translate(19.9999 19.9837) rotate(90) scale(19.9838 19.9745)">
<stop offset="0.284628" stop-color="#CE4227"/>
<stop offset="1" stop-color="#F06F28"/>
</radialGradient>
<radialGradient id="paint6_radial_155_529" cx="0" cy="0" r="1" gradientUnits="userSpaceOnUse" gradientTransform="translate(19.9999 19.9837) rotate(90) scale(19.9838 19.9745)">
<stop offset="0.284628" stop-color="#CE4227"/>
<stop offset="1" stop-color="#F06F28"/>
</radialGradient>
<radialGradient id="paint7_radial_155_529" cx="0" cy="0" r="1" gradientUnits="userSpaceOnUse" gradientTransform="translate(19.9997 19.9837) rotate(90) scale(19.9838 19.9745)">
<stop offset="0.284628" stop-color="#CE4227"/>
<stop offset="1" stop-color="#F06F28"/>
</radialGradient>
<radialGradient id="paint8_radial_155_529" cx="0" cy="0" r="1" gradientUnits="userSpaceOnUse" gradientTransform="translate(19.9997 19.9837) rotate(90) scale(19.9838 19.9745)">
<stop offset="0.284628" stop-color="#CE4227"/>
<stop offset="1" stop-color="#F06F28"/>
</radialGradient>
<radialGradient id="paint9_radial_155_529" cx="0" cy="0" r="1" gradientUnits="userSpaceOnUse" gradientTransform="translate(19.9992 19.9838) rotate(90) scale(19.9838 19.9745)">
<stop offset="0.284628" stop-color="#CE4227"/>
<stop offset="1" stop-color="#F06F28"/>
</radialGradient>
<radialGradient id="paint10_radial_155_529" cx="0" cy="0" r="1" gradientUnits="userSpaceOnUse" gradientTransform="translate(19.9998 19.9837) rotate(90) scale(19.9838 19.9745)">
<stop offset="0.284628" stop-color="#CE4227"/>
<stop offset="1" stop-color="#F06F28"/>
</radialGradient>
<radialGradient id="paint11_radial_155_529" cx="0" cy="0" r="1" gradientUnits="userSpaceOnUse" gradientTransform="translate(19.9994 19.9837) rotate(90) scale(19.9838 19.9745)">
<stop offset="0.284628" stop-color="#CE4227"/>
<stop offset="1" stop-color="#F06F28"/>
</radialGradient>
<radialGradient id="paint12_radial_155_529" cx="0" cy="0" r="1" gradientUnits="userSpaceOnUse" gradientTransform="translate(19.9992 19.9837) rotate(90) scale(19.9838 19.9745)">
<stop offset="0.284628" stop-color="#CE4227"/>
<stop offset="1" stop-color="#F06F28"/>
</radialGradient>
<radialGradient id="paint13_radial_155_529" cx="0" cy="0" r="1" gradientUnits="userSpaceOnUse" gradientTransform="translate(19.9993 19.9837) rotate(90) scale(19.9838 19.9745)">
<stop offset="0.284628" stop-color="#CE4227"/>
<stop offset="1" stop-color="#F06F28"/>
</radialGradient>
<radialGradient id="paint14_radial_155_529" cx="0" cy="0" r="1" gradientUnits="userSpaceOnUse" gradientTransform="translate(20 19.9837) rotate(90) scale(19.9838 19.9745)">
<stop offset="0.284628" stop-color="#CE4227"/>
<stop offset="1" stop-color="#F06F28"/>
</radialGradient>
<radialGradient id="paint15_radial_155_529" cx="0" cy="0" r="1" gradientUnits="userSpaceOnUse" gradientTransform="translate(19.9994 19.9837) rotate(90) scale(19.9838 19.9745)">
<stop offset="0.284628" stop-color="#CE4227"/>
<stop offset="1" stop-color="#F06F28"/>
</radialGradient>
<radialGradient id="paint16_radial_155_529" cx="0" cy="0" r="1" gradientUnits="userSpaceOnUse" gradientTransform="translate(19.9996 19.9838) rotate(90) scale(19.9838 19.9745)">
<stop offset="0.284628" stop-color="#CE4227"/>
<stop offset="1" stop-color="#F06F28"/>
</radialGradient>
<radialGradient id="paint17_radial_155_529" cx="0" cy="0" r="1" gradientUnits="userSpaceOnUse" gradientTransform="translate(19.9994 19.9837) rotate(90) scale(19.9838 19.9745)">
<stop offset="0.284628" stop-color="#CE4227"/>
<stop offset="1" stop-color="#F06F28"/>
</radialGradient>
<radialGradient id="paint18_radial_155_529" cx="0" cy="0" r="1" gradientUnits="userSpaceOnUse" gradientTransform="translate(19.9994 19.9838) rotate(90) scale(19.9838 19.9745)">
<stop offset="0.284628" stop-color="#CE4227"/>
<stop offset="1" stop-color="#F06F28"/>
</radialGradient>
<radialGradient id="paint19_radial_155_529" cx="0" cy="0" r="1" gradientUnits="userSpaceOnUse" gradientTransform="translate(19.9993 19.9837) rotate(90) scale(19.9838 19.9745)">
<stop offset="0.284628" stop-color="#CE4227"/>
<stop offset="1" stop-color="#F06F28"/>
</radialGradient>
<radialGradient id="paint20_radial_155_529" cx="0" cy="0" r="1" gradientUnits="userSpaceOnUse" gradientTransform="translate(19.9997 19.9837) rotate(90) scale(19.9838 19.9745)">
<stop offset="0.284628" stop-color="#CE4227"/>
<stop offset="1" stop-color="#F06F28"/>
</radialGradient>
<radialGradient id="paint21_radial_155_529" cx="0" cy="0" r="1" gradientUnits="userSpaceOnUse" gradientTransform="translate(20.0001 19.9837) rotate(90) scale(19.9838 19.9745)">
<stop offset="0.284628" stop-color="#CE4227"/>
<stop offset="1" stop-color="#F06F28"/>
</radialGradient>
<radialGradient id="paint22_radial_155_529" cx="0" cy="0" r="1" gradientUnits="userSpaceOnUse" gradientTransform="translate(19.9997 19.9837) rotate(90) scale(19.9838 19.9745)">
<stop offset="0.284628" stop-color="#CE4227"/>
<stop offset="1" stop-color="#F06F28"/>
</radialGradient>
<radialGradient id="paint23_radial_155_529" cx="0" cy="0" r="1" gradientUnits="userSpaceOnUse" gradientTransform="translate(19.9998 19.9837) rotate(90) scale(19.9838 19.9745)">
<stop offset="0.284628" stop-color="#CE4227"/>
<stop offset="1" stop-color="#F06F28"/>
</radialGradient>
<radialGradient id="paint24_radial_155_529" cx="0" cy="0" r="1" gradientUnits="userSpaceOnUse" gradientTransform="translate(19.9998 19.9837) rotate(90) scale(19.9838 19.9745)">
<stop offset="0.284628" stop-color="#CE4227"/>
<stop offset="1" stop-color="#F06F28"/>
</radialGradient>
<radialGradient id="paint25_radial_155_529" cx="0" cy="0" r="1" gradientUnits="userSpaceOnUse" gradientTransform="translate(19.9992 19.9837) rotate(90) scale(19.9838 19.9745)">
<stop offset="0.284628" stop-color="#CE4227"/>
<stop offset="1" stop-color="#F06F28"/>
</radialGradient>
<radialGradient id="paint26_radial_155_529" cx="0" cy="0" r="1" gradientUnits="userSpaceOnUse" gradientTransform="translate(19.9993 19.9838) rotate(90) scale(19.9838 19.9745)">
<stop offset="0.284628" stop-color="#CE4227"/>
<stop offset="1" stop-color="#F06F28"/>
</radialGradient>
<radialGradient id="paint27_radial_155_529" cx="0" cy="0" r="1" gradientUnits="userSpaceOnUse" gradientTransform="translate(19.9994 19.9838) rotate(90) scale(19.9838 19.9745)">
<stop offset="0.284628" stop-color="#CE4227"/>
<stop offset="1" stop-color="#F06F28"/>
</radialGradient>
<radialGradient id="paint28_radial_155_529" cx="0" cy="0" r="1" gradientUnits="userSpaceOnUse" gradientTransform="translate(19.9994 19.9837) rotate(90) scale(19.9838 19.9745)">
<stop offset="0.284628" stop-color="#CE4227"/>
<stop offset="1" stop-color="#F06F28"/>
</radialGradient>
<radialGradient id="paint29_radial_155_529" cx="0" cy="0" r="1" gradientUnits="userSpaceOnUse" gradientTransform="translate(20 19.9837) rotate(90) scale(19.9838 19.9745)">
<stop offset="0.284628" stop-color="#CE4227"/>
<stop offset="1" stop-color="#F06F28"/>
</radialGradient>
<radialGradient id="paint30_radial_155_529" cx="0" cy="0" r="1" gradientUnits="userSpaceOnUse" gradientTransform="translate(20 19.9837) rotate(90) scale(19.9838 19.9745)">
<stop offset="0.284628" stop-color="#CE4227"/>
<stop offset="1" stop-color="#F06F28"/>
</radialGradient>
<radialGradient id="paint31_radial_155_529" cx="0" cy="0" r="1" gradientUnits="userSpaceOnUse" gradientTransform="translate(20.0001 19.9837) rotate(90) scale(19.9838 19.9745)">
<stop offset="0.284628" stop-color="#CE4227"/>
<stop offset="1" stop-color="#F06F28"/>
</radialGradient>
<radialGradient id="paint32_radial_155_529" cx="0" cy="0" r="1" gradientUnits="userSpaceOnUse" gradientTransform="translate(19.9994 19.9837) rotate(90) scale(19.9838 19.9745)">
<stop offset="0.284628" stop-color="#CE4227"/>
<stop offset="1" stop-color="#F06F28"/>
</radialGradient>
<radialGradient id="paint33_radial_155_529" cx="0" cy="0" r="1" gradientUnits="userSpaceOnUse" gradientTransform="translate(19.9998 19.9837) rotate(90) scale(19.9838 19.9745)">
<stop offset="0.284628" stop-color="#CE4227"/>
<stop offset="1" stop-color="#F06F28"/>
</radialGradient>
<radialGradient id="paint34_radial_155_529" cx="0" cy="0" r="1" gradientUnits="userSpaceOnUse" gradientTransform="translate(19.9997 19.9837) rotate(90) scale(19.9838 19.9745)">
<stop offset="0.284628" stop-color="#CE4227"/>
<stop offset="1" stop-color="#F06F28"/>
</radialGradient>
<radialGradient id="paint35_radial_155_529" cx="0" cy="0" r="1" gradientUnits="userSpaceOnUse" gradientTransform="translate(20.0001 19.9837) rotate(90) scale(19.9838 19.9745)">
<stop offset="0.284628" stop-color="#CE4227"/>
<stop offset="1" stop-color="#F06F28"/>
</radialGradient>
<radialGradient id="paint36_radial_155_529" cx="0" cy="0" r="1" gradientUnits="userSpaceOnUse" gradientTransform="translate(19.9994 19.9837) rotate(90) scale(19.9838 19.9745)">
<stop offset="0.284628" stop-color="#CE4227"/>
<stop offset="1" stop-color="#F06F28"/>
</radialGradient>
<radialGradient id="paint37_radial_155_529" cx="0" cy="0" r="1" gradientUnits="userSpaceOnUse" gradientTransform="translate(19.9995 19.9837) rotate(90) scale(19.9838 19.9745)">
<stop offset="0.284628" stop-color="#CE4227"/>
<stop offset="1" stop-color="#F06F28"/>
</radialGradient>
<radialGradient id="paint38_radial_155_529" cx="0" cy="0" r="1" gradientUnits="userSpaceOnUse" gradientTransform="translate(19.9992 19.9837) rotate(90) scale(19.9838 19.9745)">
<stop offset="0.284628" stop-color="#CE4227"/>
<stop offset="1" stop-color="#F06F28"/>
</radialGradient>
<radialGradient id="paint39_radial_155_529" cx="0" cy="0" r="1" gradientUnits="userSpaceOnUse" gradientTransform="translate(19.9997 19.9837) rotate(90) scale(19.9838 19.9745)">
<stop offset="0.284628" stop-color="#CE4227"/>
<stop offset="1" stop-color="#F06F28"/>
</radialGradient>
<radialGradient id="paint40_radial_155_529" cx="0" cy="0" r="1" gradientUnits="userSpaceOnUse" gradientTransform="translate(19.9994 19.9837) rotate(90) scale(19.9838 19.9745)">
<stop offset="0.284628" stop-color="#CE4227"/>
<stop offset="1" stop-color="#F06F28"/>
</radialGradient>
<radialGradient id="paint41_radial_155_529" cx="0" cy="0" r="1" gradientUnits="userSpaceOnUse" gradientTransform="translate(19.9994 19.9837) rotate(90) scale(19.9838 19.9745)">
<stop offset="0.284628" stop-color="#CE4227"/>
<stop offset="1" stop-color="#F06F28"/>
</radialGradient>
<radialGradient id="paint42_radial_155_529" cx="0" cy="0" r="1" gradientUnits="userSpaceOnUse" gradientTransform="translate(20.0001 19.9838) rotate(90) scale(19.9838 19.9745)">
<stop offset="0.284628" stop-color="#CE4227"/>
<stop offset="1" stop-color="#F06F28"/>
</radialGradient>
<radialGradient id="paint43_radial_155_529" cx="0" cy="0" r="1" gradientUnits="userSpaceOnUse" gradientTransform="translate(20.0001 19.9837) rotate(90) scale(19.9838 19.9745)">
<stop offset="0.284628" stop-color="#CE4227"/>
<stop offset="1" stop-color="#F06F28"/>
</radialGradient>
<radialGradient id="paint44_radial_155_529" cx="0" cy="0" r="1" gradientUnits="userSpaceOnUse" gradientTransform="translate(19.9995 19.9837) rotate(90) scale(19.9838 19.9745)">
<stop offset="0.284628" stop-color="#CE4227"/>
<stop offset="1" stop-color="#F06F28"/>
</radialGradient>
<radialGradient id="paint45_radial_155_529" cx="0" cy="0" r="1" gradientUnits="userSpaceOnUse" gradientTransform="translate(19.9995 19.9837) rotate(90) scale(19.9838 19.9745)">
<stop offset="0.284628" stop-color="#CE4227"/>
<stop offset="1" stop-color="#F06F28"/>
</radialGradient>
<radialGradient id="paint46_radial_155_529" cx="0" cy="0" r="1" gradientUnits="userSpaceOnUse" gradientTransform="translate(19.9994 19.9837) rotate(90) scale(19.9838 19.9745)">
<stop offset="0.284628" stop-color="#CE4227"/>
<stop offset="1" stop-color="#F06F28"/>
</radialGradient>
<radialGradient id="paint47_radial_155_529" cx="0" cy="0" r="1" gradientUnits="userSpaceOnUse" gradientTransform="translate(19.9996 19.9837) rotate(90) scale(19.9838 19.9745)">
<stop offset="0.284628" stop-color="#CE4227"/>
<stop offset="1" stop-color="#F06F28"/>
</radialGradient>
<clipPath id="clip0_155_529">
<rect width="40" height="40" fill="white"/>
</clipPath>
</defs>
</svg>
