<svg width="142" height="40" viewBox="0 0 142 40" fill="none" xmlns="http://www.w3.org/2000/svg">
<g clip-path="url(#clip0_255_1743)">
<path d="M16.0049 0.837883C19.1259 -0.450759 22.1482 -0.25437 25.0766 1.43669C25.0914 1.44239 25.1056 1.4496 25.1187 1.4582C25.1387 1.47149 25.1564 1.48824 25.1706 1.50854C24.8556 1.53249 24.5454 1.54204 24.2305 1.53249C22.9003 1.60435 21.6312 1.92527 20.4232 2.49058C19.0742 1.60435 17.603 1.05345 16.0049 0.837883Z" fill="#223642"/>
<path d="M16.0049 0.837883C19.1259 -0.450759 22.1482 -0.25437 25.0766 1.43669C25.0914 1.44239 25.1056 1.4496 25.1187 1.4582C25.1387 1.47149 25.1564 1.48824 25.1706 1.50854C24.8556 1.53249 24.5454 1.54204 24.2305 1.53249C22.9003 1.60435 21.6312 1.92527 20.4232 2.49058C19.0742 1.60435 17.603 1.05345 16.0049 0.837883Z" fill="url(#paint0_radial_255_1743)"/>
<path d="M28.6018 4.74203C29.932 4.80435 31.2152 5.07735 32.4561 5.55639C30.8016 3.43908 28.6441 2.17439 25.9931 1.77197C25.9602 1.81033 25.9696 1.84383 26.0166 1.86778C27.0413 2.67261 27.9062 3.63069 28.6018 4.74203Z" fill="#223642"/>
<path d="M28.6018 4.74203C29.932 4.80435 31.2152 5.07735 32.4561 5.55639C30.8016 3.43908 28.6441 2.17439 25.9931 1.77197C25.9602 1.81033 25.9696 1.84383 26.0166 1.86778C27.0413 2.67261 27.9062 3.63069 28.6018 4.74203Z" fill="url(#paint1_radial_255_1743)"/>
<path d="M38.4257 14.0355C38.4398 14.1744 38.4257 14.3037 38.3787 14.4187C37.4245 13.0391 36.2259 11.9373 34.7829 11.1134C34.6466 9.30742 34.0919 7.65472 33.1143 6.15527C33.3634 6.22713 33.5984 6.33736 33.8193 6.4906C36.4985 8.27259 38.0308 10.7876 38.4257 14.0355Z" fill="#223642"/>
<path d="M38.4257 14.0355C38.4398 14.1744 38.4257 14.3037 38.3787 14.4187C37.4245 13.0391 36.2259 11.9373 34.7829 11.1134C34.6466 9.30742 34.0919 7.65472 33.1143 6.15527C33.3634 6.22713 33.5984 6.33736 33.8193 6.4906C36.4985 8.27259 38.0308 10.7876 38.4257 14.0355Z" fill="url(#paint2_radial_255_1743)"/>
<path d="M38.7546 25.0057C40.3809 21.8009 40.3809 18.5913 38.7546 15.377C38.7412 15.4295 38.7286 15.4812 38.7162 15.5327C38.698 15.6082 38.6801 15.6833 38.6606 15.7602C38.5431 17.2836 38.1388 18.7207 37.4385 20.0716C38.167 21.4799 38.576 22.9842 38.6606 24.5746L38.679 24.6573L38.7041 24.7741C38.7206 24.8513 38.7369 24.9285 38.7546 25.0057Z" fill="#223642"/>
<path d="M38.7546 25.0057C40.3809 21.8009 40.3809 18.5913 38.7546 15.377C38.7412 15.4295 38.7286 15.4812 38.7162 15.5327C38.698 15.6082 38.6801 15.6833 38.6606 15.7602C38.5431 17.2836 38.1388 18.7207 37.4385 20.0716C38.167 21.4799 38.576 22.9842 38.6606 24.5746L38.679 24.6573L38.7041 24.7741C38.7206 24.8513 38.7369 24.9285 38.7546 25.0057Z" fill="url(#paint3_radial_255_1743)"/>
<path d="M27.5208 4.83797C27.817 4.82834 28.1178 4.80439 28.4139 4.76611C27.6478 3.55409 26.6748 2.5481 25.4997 1.74814C23.7935 1.59002 22.1624 1.87745 20.6113 2.61042C20.8557 2.78762 21.0908 2.9697 21.3164 3.16132C22.2847 3.98046 23.0931 4.93852 23.7371 6.03557C24.9216 5.38887 26.1859 4.99121 27.5208 4.83797Z" fill="#223642"/>
<path d="M27.5208 4.83797C27.817 4.82834 28.1178 4.80439 28.4139 4.76611C27.6478 3.55409 26.6748 2.5481 25.4997 1.74814C23.7935 1.59002 22.1624 1.87745 20.6113 2.61042C20.8557 2.78762 21.0908 2.9697 21.3164 3.16132C22.2847 3.98046 23.0931 4.93852 23.7371 6.03557C24.9216 5.38887 26.1859 4.99121 27.5208 4.83797Z" fill="url(#paint4_radial_255_1743)"/>
<path d="M23.2435 6.32284C23.3328 6.27968 23.4174 6.23177 23.502 6.17913C22.7829 4.73724 21.7488 3.57313 20.3998 2.68213C19.4879 3.15163 18.6654 3.74079 17.9321 4.45458C17.8052 4.63179 17.6454 4.7755 17.4621 4.88571C17.1143 5.26416 16.7946 5.66171 16.4985 6.08332C16.3857 6.24145 16.428 6.33726 16.616 6.37074C17.2459 6.82104 17.8381 7.31441 18.4022 7.85577C18.9615 8.45932 19.455 9.11081 19.8828 9.81984C20.2964 9.10128 20.7899 8.44978 21.3634 7.85577C21.9509 7.29045 22.5761 6.77793 23.2435 6.32284Z" fill="#223642"/>
<path d="M23.2435 6.32284C23.3328 6.27968 23.4174 6.23177 23.502 6.17913C22.7829 4.73724 21.7488 3.57313 20.3998 2.68213C19.4879 3.15163 18.6654 3.74079 17.9321 4.45458C17.8052 4.63179 17.6454 4.7755 17.4621 4.88571C17.1143 5.26416 16.7946 5.66171 16.4985 6.08332C16.3857 6.24145 16.428 6.33726 16.616 6.37074C17.2459 6.82104 17.8381 7.31441 18.4022 7.85577C18.9615 8.45932 19.455 9.11081 19.8828 9.81984C20.2964 9.10128 20.7899 8.44978 21.3634 7.85577C21.9509 7.29045 22.5761 6.77793 23.2435 6.32284Z" fill="url(#paint5_radial_255_1743)"/>
<path d="M29.8945 9.868C29.7488 9.91112 29.6031 9.93033 29.448 9.91591C28.7335 9.96855 28.0285 10.0836 27.3328 10.2512C26.5337 10.5147 25.7488 10.8356 24.9826 11.2093C24.9873 10.371 24.9074 9.54221 24.7476 8.7183C24.5267 7.95658 24.2635 7.20453 23.9486 6.46681C23.8592 6.38053 23.8263 6.28472 23.8545 6.17938C25.3211 5.36022 26.8863 4.97698 28.5549 5.02968C29.4198 6.52424 29.8663 8.13392 29.8945 9.868Z" fill="#223642"/>
<path d="M29.8945 9.868C29.7488 9.91112 29.6031 9.93033 29.448 9.91591C28.7335 9.96855 28.0285 10.0836 27.3328 10.2512C26.5337 10.5147 25.7488 10.8356 24.9826 11.2093C24.9873 10.371 24.9074 9.54221 24.7476 8.7183C24.5267 7.95658 24.2635 7.20453 23.9486 6.46681C23.8592 6.38053 23.8263 6.28472 23.8545 6.17938C25.3211 5.36022 26.8863 4.97698 28.5549 5.02968C29.4198 6.52424 29.8663 8.13392 29.8945 9.868Z" fill="url(#paint6_radial_255_1743)"/>
<path d="M24.1833 11.7359C24.3948 11.6209 24.5969 11.4916 24.7944 11.3527C24.8461 11.0508 24.8461 10.7444 24.7944 10.4425C24.7615 9.81023 24.6674 9.18747 24.5123 8.57425C24.3149 7.77904 24.0188 7.03178 23.6193 6.32275C22.9095 6.72994 22.2656 7.2234 21.6921 7.80778C21.1986 8.26287 20.7756 8.7754 20.423 9.34072C20.2585 9.53708 20.1175 9.75265 20 9.98742C20.042 10.0697 20.0839 10.1508 20.1263 10.231C20.2072 10.3843 20.2896 10.5342 20.376 10.682C20.6957 11.4053 20.9307 12.1526 21.0811 12.9335C21.1328 13.1396 21.1798 13.3455 21.2221 13.5563L21.2317 13.6694C21.2472 13.8539 21.2628 14.0392 21.2789 14.2244L21.2901 14.3532L21.3117 14.5963C21.3208 14.6969 21.3301 14.7974 21.3396 14.8976C21.5652 14.4904 21.8237 14.1072 22.1152 13.7479C22.2374 13.6137 22.3455 13.47 22.4442 13.3168C22.7638 13.0149 23.0787 12.7035 23.3843 12.3826C23.6569 12.1718 23.9248 11.9562 24.1833 11.7359Z" fill="#223642"/>
<path d="M24.1833 11.7359C24.3948 11.6209 24.5969 11.4916 24.7944 11.3527C24.8461 11.0508 24.8461 10.7444 24.7944 10.4425C24.7615 9.81023 24.6674 9.18747 24.5123 8.57425C24.3149 7.77904 24.0188 7.03178 23.6193 6.32275C22.9095 6.72994 22.2656 7.2234 21.6921 7.80778C21.1986 8.26287 20.7756 8.7754 20.423 9.34072C20.2585 9.53708 20.1175 9.75265 20 9.98742C20.042 10.0697 20.0839 10.1508 20.1263 10.231C20.2072 10.3843 20.2896 10.5342 20.376 10.682C20.6957 11.4053 20.9307 12.1526 21.0811 12.9335C21.1328 13.1396 21.1798 13.3455 21.2221 13.5563L21.2317 13.6694C21.2472 13.8539 21.2628 14.0392 21.2789 14.2244L21.2901 14.3532L21.3117 14.5963C21.3208 14.6969 21.3301 14.7974 21.3396 14.8976C21.5652 14.4904 21.8237 14.1072 22.1152 13.7479C22.2374 13.6137 22.3455 13.47 22.4442 13.3168C22.7638 13.0149 23.0787 12.7035 23.3843 12.3826C23.6569 12.1718 23.9248 11.9562 24.1833 11.7359Z" fill="url(#paint7_radial_255_1743)"/>
<path d="M29.5888 12.5027C29.4525 13.1733 29.2316 13.8153 28.9307 14.4189C28.9025 14.5291 28.8555 14.6344 28.7897 14.7302C28.3808 14.7542 27.9766 14.7637 27.5676 14.7542C26.9895 14.8452 26.4114 14.9602 25.8285 15.0895C25.5559 15.1949 25.2739 15.2907 24.9824 15.3769C24.6299 15.5493 24.268 15.7075 23.9014 15.856C24.0612 15.5014 24.2163 15.1518 24.3714 14.8021C24.456 14.5051 24.55 14.2177 24.6534 13.9398C24.7803 13.3457 24.8931 12.7566 24.9824 12.1674C24.973 11.9423 24.9824 11.7218 25.006 11.4967C25.241 11.3098 25.4995 11.1661 25.7815 11.0656C26.3126 10.7829 26.8767 10.577 27.4736 10.4428C28.2492 10.2128 29.0483 10.0835 29.8708 10.0596C29.899 10.8931 29.805 11.7123 29.5888 12.5027Z" fill="#223642"/>
<path d="M29.5888 12.5027C29.4525 13.1733 29.2316 13.8153 28.9307 14.4189C28.9025 14.5291 28.8555 14.6344 28.7897 14.7302C28.3808 14.7542 27.9766 14.7637 27.5676 14.7542C26.9895 14.8452 26.4114 14.9602 25.8285 15.0895C25.5559 15.1949 25.2739 15.2907 24.9824 15.3769C24.6299 15.5493 24.268 15.7075 23.9014 15.856C24.0612 15.5014 24.2163 15.1518 24.3714 14.8021C24.456 14.5051 24.55 14.2177 24.6534 13.9398C24.7803 13.3457 24.8931 12.7566 24.9824 12.1674C24.973 11.9423 24.9824 11.7218 25.006 11.4967C25.241 11.3098 25.4995 11.1661 25.7815 11.0656C26.3126 10.7829 26.8767 10.577 27.4736 10.4428C28.2492 10.2128 29.0483 10.0835 29.8708 10.0596C29.899 10.8931 29.805 11.7123 29.5888 12.5027Z" fill="url(#paint8_radial_255_1743)"/>
<path d="M33.8656 10.6341C34.0818 10.7443 34.298 10.8593 34.5236 10.9694C34.4296 9.10118 33.8327 7.41974 32.7375 5.91555C31.4731 5.29279 30.1429 4.99105 28.7422 5.00537C28.9208 5.29279 29.0759 5.58985 29.2122 5.8916C29.7528 7.15627 30.0348 8.48317 30.0583 9.86765C31.3697 9.90123 32.6388 10.1598 33.8656 10.6341Z" fill="#223642"/>
<path d="M33.8656 10.6341C34.0818 10.7443 34.298 10.8593 34.5236 10.9694C34.4296 9.10118 33.8327 7.41974 32.7375 5.91555C31.4731 5.29279 30.1429 4.99105 28.7422 5.00537C28.9208 5.29279 29.0759 5.58985 29.2122 5.8916C29.7528 7.15627 30.0348 8.48317 30.0583 9.86765C31.3697 9.90123 32.6388 10.1598 33.8656 10.6341Z" fill="url(#paint9_radial_255_1743)"/>
<path d="M36.5924 18.7782C36.8415 19.1375 37.086 19.5063 37.321 19.88C38.1341 18.3375 38.5243 16.6943 38.4961 14.9458C37.5936 13.4034 36.3715 12.2058 34.8298 11.353C34.8063 11.6405 34.7969 11.9279 34.8063 12.2153C34.764 13.6141 34.4491 14.9458 33.8662 16.2153C34.3927 16.6081 34.9097 17.0249 35.4173 17.4608C35.8357 17.8824 36.2305 18.3183 36.5924 18.7782Z" fill="#223642"/>
<path d="M36.5924 18.7782C36.8415 19.1375 37.086 19.5063 37.321 19.88C38.1341 18.3375 38.5243 16.6943 38.4961 14.9458C37.5936 13.4034 36.3715 12.2058 34.8298 11.353C34.8063 11.6405 34.7969 11.9279 34.8063 12.2153C34.764 13.6141 34.4491 14.9458 33.8662 16.2153C34.3927 16.6081 34.9097 17.0249 35.4173 17.4608C35.8357 17.8824 36.2305 18.3183 36.5924 18.7782Z" fill="url(#paint10_radial_255_1743)"/>
<path d="M33.6543 16.1433C33.5039 16.038 33.3581 15.9422 33.2077 15.8559C32.5168 15.5062 31.7929 15.2379 31.0456 15.0416C30.3828 14.8834 29.706 14.7781 29.0244 14.7302C29.3346 14.1218 29.5885 13.4894 29.7765 12.838C29.9645 12.0188 30.0726 11.19 30.1055 10.3469V10.1074C31.6895 10.1074 33.1795 10.4907 34.5708 11.2571C34.693 12.9673 34.3875 14.596 33.6543 16.1433Z" fill="#223642"/>
<path d="M33.6543 16.1433C33.5039 16.038 33.3581 15.9422 33.2077 15.8559C32.5168 15.5062 31.7929 15.2379 31.0456 15.0416C30.3828 14.8834 29.706 14.7781 29.0244 14.7302C29.3346 14.1218 29.5885 13.4894 29.7765 12.838C29.9645 12.0188 30.0726 11.19 30.1055 10.3469V10.1074C31.6895 10.1074 33.1795 10.4907 34.5708 11.2571C34.693 12.9673 34.3875 14.596 33.6543 16.1433Z" fill="url(#paint11_radial_255_1743)"/>
<path d="M31.9855 18.6821C32.6388 17.997 33.1699 17.2257 33.5836 16.3587C32.8409 15.8844 32.0419 15.5396 31.1864 15.3288C30.5801 15.1372 29.9549 15.0221 29.3063 14.9934C29.1699 14.9455 29.0383 14.9455 28.9067 14.9934C28.7234 15.3623 28.5119 15.7168 28.2722 16.0473C27.9009 16.5695 27.4919 17.0629 27.0501 17.5324C26.6788 17.8869 26.2886 18.2126 25.875 18.5144C26.3967 18.5958 26.9138 18.7012 27.4261 18.8258C27.9855 19.003 28.5354 19.2138 29.0712 19.4485C29.4661 19.6688 29.8609 19.8988 30.2463 20.1431C30.2933 20.1766 30.3403 20.1766 30.3873 20.1431C30.4296 20.0952 30.4766 20.0521 30.5283 20.0234C31.0689 19.6449 31.5577 19.1995 31.9855 18.6821Z" fill="#223642"/>
<path d="M31.9855 18.6821C32.6388 17.997 33.1699 17.2257 33.5836 16.3587C32.8409 15.8844 32.0419 15.5396 31.1864 15.3288C30.5801 15.1372 29.9549 15.0221 29.3063 14.9934C29.1699 14.9455 29.0383 14.9455 28.9067 14.9934C28.7234 15.3623 28.5119 15.7168 28.2722 16.0473C27.9009 16.5695 27.4919 17.0629 27.0501 17.5324C26.6788 17.8869 26.2886 18.2126 25.875 18.5144C26.3967 18.5958 26.9138 18.7012 27.4261 18.8258C27.9855 19.003 28.5354 19.2138 29.0712 19.4485C29.4661 19.6688 29.8609 19.8988 30.2463 20.1431C30.2933 20.1766 30.3403 20.1766 30.3873 20.1431C30.4296 20.0952 30.4766 20.0521 30.5283 20.0234C31.0689 19.6449 31.5577 19.1995 31.9855 18.6821Z" fill="url(#paint12_radial_255_1743)"/>
<path d="M37.203 20.0714C37.0619 20.3972 36.8739 20.6846 36.6389 20.9337C35.8539 22.0978 34.8669 23.051 33.6777 23.784C33.6307 23.8174 33.5837 23.8174 33.5367 23.784C33.485 23.6977 33.438 23.6115 33.3957 23.5205C33.0102 22.8642 32.5543 22.2558 32.0326 21.7001C31.7787 21.4653 31.5296 21.2163 31.2805 20.9576C31.0079 20.7516 30.74 20.536 30.4814 20.3109C30.8857 19.9947 31.2805 19.6594 31.6565 19.3049C31.8116 19.1133 31.9856 18.9361 32.1736 18.778C32.6671 18.2127 33.1089 17.6043 33.4897 16.9576C33.5461 16.7612 33.6401 16.5839 33.7717 16.4307C34.9468 17.1588 35.9198 18.0978 36.6859 19.257C36.8739 19.5157 37.0478 19.784 37.203 20.0714Z" fill="#223642"/>
<path d="M37.203 20.0714C37.0619 20.3972 36.8739 20.6846 36.6389 20.9337C35.8539 22.0978 34.8669 23.051 33.6777 23.784C33.6307 23.8174 33.5837 23.8174 33.5367 23.784C33.485 23.6977 33.438 23.6115 33.3957 23.5205C33.0102 22.8642 32.5543 22.2558 32.0326 21.7001C31.7787 21.4653 31.5296 21.2163 31.2805 20.9576C31.0079 20.7516 30.74 20.536 30.4814 20.3109C30.8857 19.9947 31.2805 19.6594 31.6565 19.3049C31.8116 19.1133 31.9856 18.9361 32.1736 18.778C32.6671 18.2127 33.1089 17.6043 33.4897 16.9576C33.5461 16.7612 33.6401 16.5839 33.7717 16.4307C34.9468 17.1588 35.9198 18.0978 36.6859 19.257C36.8739 19.5157 37.0478 19.784 37.203 20.0714Z" fill="url(#paint13_radial_255_1743)"/>
<path d="M14.5949 1.00533C14.7924 0.990923 14.9804 1.00533 15.159 1.05324C13.5703 1.93469 12.3012 3.16579 11.3517 4.74186C9.55617 4.76581 7.87345 5.21126 6.29883 6.08317C7.62433 3.7311 9.56557 2.17945 12.1508 1.36461C12.9498 1.12986 13.763 1.0101 14.5949 1.00533Z" fill="#223642"/>
<path d="M14.5949 1.00533C14.7924 0.990923 14.9804 1.00533 15.159 1.05324C13.5703 1.93469 12.3012 3.16579 11.3517 4.74186C9.55617 4.76581 7.87345 5.21126 6.29883 6.08317C7.62433 3.7311 9.56557 2.17945 12.1508 1.36461C12.9498 1.12986 13.763 1.0101 14.5949 1.00533Z" fill="url(#paint14_radial_255_1743)"/>
<path d="M19.6913 2.86734L19.3416 3.06523C18.0961 3.88437 17.0526 4.91906 16.2159 6.17899C15.0737 5.48438 13.8469 5.05324 12.5261 4.88558C12.1971 4.85683 11.8681 4.81846 11.5391 4.76582C12.559 3.13231 13.9221 1.8868 15.6284 1.0293C17.2923 1.13951 18.8293 1.64728 20.2347 2.56223C20.1474 2.61088 20.0605 2.65954 19.9738 2.70819L19.6913 2.86734Z" fill="#223642"/>
<path d="M19.6913 2.86734L19.3416 3.06523C18.0961 3.88437 17.0526 4.91906 16.2159 6.17899C15.0737 5.48438 13.8469 5.05324 12.5261 4.88558C12.1971 4.85683 11.8681 4.81846 11.5391 4.76582C12.559 3.13231 13.9221 1.8868 15.6284 1.0293C17.2923 1.13951 18.8293 1.64728 20.2347 2.56223C20.1474 2.61088 20.0605 2.65954 19.9738 2.70819L19.6913 2.86734Z" fill="url(#paint15_radial_255_1743)"/>
<path d="M10.6932 5.98769C10.8436 5.65236 11.0175 5.32656 11.2102 5.00565C10.9141 4.97207 10.6133 4.97207 10.3172 5.00565C8.78014 5.13974 7.36064 5.62841 6.06334 6.46673C5.27368 7.96129 4.91175 9.5613 4.98226 11.2572C5.36769 11.0176 5.76722 10.8068 6.18085 10.6344C7.37474 10.184 8.60153 9.93016 9.87062 9.86793C9.91293 8.52182 10.1902 7.22841 10.6932 5.98769Z" fill="#223642"/>
<path d="M10.6932 5.98769C10.8436 5.65236 11.0175 5.32656 11.2102 5.00565C10.9141 4.97207 10.6133 4.97207 10.3172 5.00565C8.78014 5.13974 7.36064 5.62841 6.06334 6.46673C5.27368 7.96129 4.91175 9.5613 4.98226 11.2572C5.36769 11.0176 5.76722 10.8068 6.18085 10.6344C7.37474 10.184 8.60153 9.93016 9.87062 9.86793C9.91293 8.52182 10.1902 7.22841 10.6932 5.98769Z" fill="url(#paint16_radial_255_1743)"/>
<path d="M1.33933 14.8499C1.29232 14.7349 1.27823 14.6056 1.29232 14.4666C1.44274 12.0475 2.31701 9.95411 3.92452 8.19119L4.46506 7.64029L4.46582 7.63943L4.46933 7.63608L4.47243 7.63315L4.4884 7.61802C4.60745 7.50554 4.68091 7.43612 4.73838 7.38372C4.77199 7.35315 4.80014 7.32834 4.82877 7.3041C4.86365 7.27454 4.89918 7.2458 4.94609 7.20848L5.0056 7.16125C5.08828 7.09969 5.17044 7.03756 5.25246 6.97524C5.41279 6.85332 5.57246 6.73083 5.73415 6.61035C5.62604 6.94568 5.49913 7.28101 5.35812 7.61634C4.95389 8.84264 4.74238 10.1026 4.72358 11.4008C3.32759 12.2822 2.1995 13.4319 1.33933 14.8499Z" fill="#223642"/>
<path d="M1.33933 14.8499C1.29232 14.7349 1.27823 14.6056 1.29232 14.4666C1.44274 12.0475 2.31701 9.95411 3.92452 8.19119L4.46506 7.64029L4.46582 7.63943L4.46933 7.63608L4.47243 7.63315L4.4884 7.61802C4.60745 7.50554 4.68091 7.43612 4.73838 7.38372C4.77199 7.35315 4.80014 7.32834 4.82877 7.3041C4.86365 7.27454 4.89918 7.2458 4.94609 7.20848L5.0056 7.16125C5.08828 7.09969 5.17044 7.03756 5.25246 6.97524C5.41279 6.85332 5.57246 6.73083 5.73415 6.61035C5.62604 6.94568 5.49913 7.28101 5.35812 7.61634C4.95389 8.84264 4.74238 10.1026 4.72358 11.4008C3.32759 12.2822 2.1995 13.4319 1.33933 14.8499Z" fill="url(#paint17_radial_255_1743)"/>
<path d="M15.9575 6.61048C16.0139 6.51942 16.075 6.43319 16.1455 6.34701C14.6837 5.45115 13.1044 5.01522 11.3981 5.02964C10.5991 6.40445 10.1619 7.88948 10.082 9.48473V9.86797L10.2935 9.8924L10.5521 9.91587C11.2994 9.9781 12.0374 10.1026 12.7612 10.2991C13.3958 10.5098 14.0256 10.7493 14.6414 11.0177C14.679 10.3038 14.7918 9.59961 14.9704 8.90988C15.2242 8.11458 15.5532 7.34811 15.9575 6.61048Z" fill="#223642"/>
<path d="M15.9575 6.61048C16.0139 6.51942 16.075 6.43319 16.1455 6.34701C14.6837 5.45115 13.1044 5.01522 11.3981 5.02964C10.5991 6.40445 10.1619 7.88948 10.082 9.48473V9.86797L10.2935 9.8924L10.5521 9.91587C11.2994 9.9781 12.0374 10.1026 12.7612 10.2991C13.3958 10.5098 14.0256 10.7493 14.6414 11.0177C14.679 10.3038 14.7918 9.59961 14.9704 8.90988C15.2242 8.11458 15.5532 7.34811 15.9575 6.61048Z" fill="url(#paint18_radial_255_1743)"/>
<path d="M19.5002 10.486L19.4503 10.5747C19.4299 10.6106 19.4094 10.6463 19.3885 10.6819C19.0736 11.4244 18.8198 12.1909 18.6365 12.9813C18.5613 13.4891 18.4908 14.0017 18.425 14.5143C18.1335 14.1118 17.8468 13.7143 17.5554 13.3167C17.0196 12.7513 16.4414 12.2388 15.8163 11.7837C15.5013 11.5586 15.1723 11.3526 14.8292 11.161C14.7822 11.0028 14.7822 10.8401 14.8292 10.6819C14.8997 9.99685 15.0407 9.32619 15.2522 8.66995C15.506 7.87 15.8586 7.11781 16.3098 6.41846C16.9726 6.82085 17.5742 7.29989 18.1194 7.85558C18.5801 8.27719 18.9749 8.75623 19.2945 9.29271C19.4778 9.49874 19.6377 9.73338 19.7646 9.98732C19.6776 10.1578 19.5906 10.3235 19.5002 10.486Z" fill="#223642"/>
<path d="M19.5002 10.486L19.4503 10.5747C19.4299 10.6106 19.4094 10.6463 19.3885 10.6819C19.0736 11.4244 18.8198 12.1909 18.6365 12.9813C18.5613 13.4891 18.4908 14.0017 18.425 14.5143C18.1335 14.1118 17.8468 13.7143 17.5554 13.3167C17.0196 12.7513 16.4414 12.2388 15.8163 11.7837C15.5013 11.5586 15.1723 11.3526 14.8292 11.161C14.7822 11.0028 14.7822 10.8401 14.8292 10.6819C14.8997 9.99685 15.0407 9.32619 15.2522 8.66995C15.506 7.87 15.8586 7.11781 16.3098 6.41846C16.9726 6.82085 17.5742 7.29989 18.1194 7.85558C18.5801 8.27719 18.9749 8.75623 19.2945 9.29271C19.4778 9.49874 19.6377 9.73338 19.7646 9.98732C19.6776 10.1578 19.5906 10.3235 19.5002 10.486Z" fill="url(#paint19_radial_255_1743)"/>
<path d="M9.00116 15.1374C9.64981 14.9937 10.3079 14.917 10.9753 14.8979C10.6792 14.2464 10.4254 13.5757 10.2233 12.8859C10.0728 12.2536 9.98823 11.6409 9.91773 10.9942C9.87857 10.6349 9.87072 10.3954 9.84722 10.0835C8.11749 10.1027 6.50057 10.5577 5.00586 11.4488C5.01056 13.1494 5.44299 14.7302 6.29846 16.1913C6.38565 16.1328 6.47397 16.0766 6.56229 16.0222L6.65051 15.9683L6.70917 15.933C6.75265 15.907 6.79599 15.8813 6.839 15.856C7.53935 15.559 8.2632 15.3195 9.00116 15.1374Z" fill="#223642"/>
<path d="M9.00116 15.1374C9.64981 14.9937 10.3079 14.917 10.9753 14.8979C10.6792 14.2464 10.4254 13.5757 10.2233 12.8859C10.0728 12.2536 9.98823 11.6409 9.91773 10.9942C9.87857 10.6349 9.87072 10.3954 9.84722 10.0835C8.11749 10.1027 6.50057 10.5577 5.00586 11.4488C5.01056 13.1494 5.44299 14.7302 6.29846 16.1913C6.38565 16.1328 6.47397 16.0766 6.56229 16.0222L6.65051 15.9683L6.70917 15.933C6.75265 15.907 6.79599 15.8813 6.839 15.856C7.53935 15.559 8.2632 15.3195 9.00116 15.1374Z" fill="url(#paint20_radial_255_1743)"/>
<path d="M3.4552 18.4905C4.24485 17.6138 5.13792 16.8713 6.1344 16.2629C5.53745 15.2091 5.12852 14.0833 4.9123 12.8857C4.87 12.4498 4.8136 12.0186 4.74779 11.5923C3.26718 12.5264 2.10618 13.7719 1.26953 15.3288C1.29303 16.9671 1.70197 18.5 2.49162 19.9276C2.77835 19.4198 3.10267 18.9408 3.4552 18.4905Z" fill="#223642"/>
<path d="M3.4552 18.4905C4.24485 17.6138 5.13792 16.8713 6.1344 16.2629C5.53745 15.2091 5.12852 14.0833 4.9123 12.8857C4.87 12.4498 4.8136 12.0186 4.74779 11.5923C3.26718 12.5264 2.10618 13.7719 1.26953 15.3288C1.29303 16.9671 1.70197 18.5 2.49162 19.9276C2.77835 19.4198 3.10267 18.9408 3.4552 18.4905Z" fill="url(#paint21_radial_255_1743)"/>
<path d="M15.2762 15.7601C14.8766 15.5829 14.4771 15.4248 14.0776 15.2811C13.5041 15.1326 12.926 15.0176 12.3384 14.9458C11.9624 14.9123 11.5864 14.8883 11.2104 14.8739C11.1257 14.7446 11.0646 14.6104 11.0223 14.4667C10.7121 13.8823 10.4912 13.2596 10.3643 12.5985C10.1199 11.7793 10.0259 10.941 10.0823 10.0835C10.9189 10.0882 11.7321 10.208 12.5265 10.4428C13.1469 10.577 13.725 10.7973 14.2656 11.1134C14.4207 11.1374 14.5335 11.214 14.5946 11.353C14.5382 11.7362 14.5382 12.1194 14.5946 12.5027C14.6322 13.1638 14.7262 13.82 14.8766 14.4667L14.8776 14.4698C15.0136 14.8999 15.1496 15.33 15.2762 15.7601Z" fill="#223642"/>
<path d="M15.2762 15.7601C14.8766 15.5829 14.4771 15.4248 14.0776 15.2811C13.5041 15.1326 12.926 15.0176 12.3384 14.9458C11.9624 14.9123 11.5864 14.8883 11.2104 14.8739C11.1257 14.7446 11.0646 14.6104 11.0223 14.4667C10.7121 13.8823 10.4912 13.2596 10.3643 12.5985C10.1199 11.7793 10.0259 10.941 10.0823 10.0835C10.9189 10.0882 11.7321 10.208 12.5265 10.4428C13.1469 10.577 13.725 10.7973 14.2656 11.1134C14.4207 11.1374 14.5335 11.214 14.5946 11.353C14.5382 11.7362 14.5382 12.1194 14.5946 12.5027C14.6322 13.1638 14.7262 13.82 14.8766 14.4667L14.8776 14.4698C15.0136 14.8999 15.1496 15.33 15.2762 15.7601Z" fill="url(#paint22_radial_255_1743)"/>
<path d="M2.37385 20.1192C1.62179 18.7251 1.18465 17.2401 1.05775 15.6641C-0.310058 18.6485 -0.319468 21.6329 1.03425 24.6221C1.16115 23.0269 1.60768 21.5228 2.37385 20.1192Z" fill="#223642"/>
<path d="M2.37385 20.1192C1.62179 18.7251 1.18465 17.2401 1.05775 15.6641C-0.310058 18.6485 -0.319468 21.6329 1.03425 24.6221C1.16115 23.0269 1.60768 21.5228 2.37385 20.1192Z" fill="url(#paint23_radial_255_1743)"/>
<path d="M13.9837 18.4666C13.5231 18.5336 13.0718 18.6198 12.6206 18.73C12.0237 18.8593 11.4455 19.0318 10.8815 19.257C10.5243 19.4294 10.1717 19.621 9.8239 19.8318C9.80077 19.8165 9.77793 19.8007 9.75527 19.7845C9.73502 19.77 9.71499 19.7552 9.6952 19.7401C9.66442 19.7167 9.63419 19.6925 9.60468 19.6679C9.57516 19.6432 9.54634 19.6179 9.51838 19.5923C8.97784 19.2809 8.4937 18.8977 8.06127 18.4426C7.41262 17.8199 6.84858 17.1252 6.36914 16.3588C7.1306 15.8941 7.94376 15.5684 8.81332 15.3767C9.44317 15.1995 10.0824 15.1036 10.7405 15.0893C10.8721 15.0749 10.9943 15.0893 11.1165 15.1372C11.3045 15.4869 11.5066 15.8222 11.7275 16.1432C12.0895 16.6557 12.4984 17.1348 12.9496 17.5803C13.2881 17.8821 13.6312 18.1791 13.9837 18.4666Z" fill="#223642"/>
<path d="M13.9837 18.4666C13.5231 18.5336 13.0718 18.6198 12.6206 18.73C12.0237 18.8593 11.4455 19.0318 10.8815 19.257C10.5243 19.4294 10.1717 19.621 9.8239 19.8318C9.80077 19.8165 9.77793 19.8007 9.75527 19.7845C9.73502 19.77 9.71499 19.7552 9.6952 19.7401C9.66442 19.7167 9.63419 19.6925 9.60468 19.6679C9.57516 19.6432 9.54634 19.6179 9.51838 19.5923C8.97784 19.2809 8.4937 18.8977 8.06127 18.4426C7.41262 17.8199 6.84858 17.1252 6.36914 16.3588C7.1306 15.8941 7.94376 15.5684 8.81332 15.3767C9.44317 15.1995 10.0824 15.1036 10.7405 15.0893C10.8721 15.0749 10.9943 15.0893 11.1165 15.1372C11.3045 15.4869 11.5066 15.8222 11.7275 16.1432C12.0895 16.6557 12.4984 17.1348 12.9496 17.5803C13.2881 17.8821 13.6312 18.1791 13.9837 18.4666Z" fill="url(#paint24_radial_255_1743)"/>
<path d="M7.99477 21.1843C8.51035 20.7353 9.05404 20.3292 9.63528 19.9662C9.08219 19.584 8.55251 19.1779 8.04163 18.748C7.77916 18.4567 7.50264 18.17 7.22137 17.8882C7.00107 17.5919 6.77606 17.3054 6.54175 17.0283C6.43862 16.8324 6.32144 16.6413 6.19021 16.4551C5.06997 17.0952 4.12784 17.936 3.35444 18.9869C3.04978 19.3308 2.80137 19.713 2.60449 20.1334C2.8248 20.5824 3.08727 20.9932 3.4013 21.3754C4.11845 22.2925 4.96215 23.0616 5.93239 23.6923C5.96675 23.7177 5.99904 23.7219 6.02922 23.7063C6.04436 23.6985 6.05893 23.6858 6.07298 23.6683C6.20426 23.42 6.3449 23.1811 6.49488 22.9518C6.94015 22.3212 7.43698 21.7288 7.99477 21.1843Z" fill="#223642"/>
<path d="M7.99477 21.1843C8.51035 20.7353 9.05404 20.3292 9.63528 19.9662C9.08219 19.584 8.55251 19.1779 8.04163 18.748C7.77916 18.4567 7.50264 18.17 7.22137 17.8882C7.00107 17.5919 6.77606 17.3054 6.54175 17.0283C6.43862 16.8324 6.32144 16.6413 6.19021 16.4551C5.06997 17.0952 4.12784 17.936 3.35444 18.9869C3.04978 19.3308 2.80137 19.713 2.60449 20.1334C2.8248 20.5824 3.08727 20.9932 3.4013 21.3754C4.11845 22.2925 4.96215 23.0616 5.93239 23.6923C5.96675 23.7177 5.99904 23.7219 6.02922 23.7063C6.04436 23.6985 6.05893 23.6858 6.07298 23.6683C6.20426 23.42 6.3449 23.1811 6.49488 22.9518C6.94015 22.3212 7.43698 21.7288 7.99477 21.1843Z" fill="url(#paint25_radial_255_1743)"/>
<path d="M2.41709 20.372C2.46396 20.3672 2.50146 20.3816 2.53426 20.4198C3.40139 21.8577 4.53101 23.028 5.9325 23.9309C5.1544 25.45 4.73255 27.0694 4.66693 28.7795C3.21859 27.8528 2.0843 26.6251 1.26872 25.1012C1.25935 23.4246 1.64369 21.8481 2.41709 20.372Z" fill="#223642"/>
<path d="M2.41709 20.372C2.46396 20.3672 2.50146 20.3816 2.53426 20.4198C3.40139 21.8577 4.53101 23.028 5.9325 23.9309C5.1544 25.45 4.73255 27.0694 4.66693 28.7795C3.21859 27.8528 2.0843 26.6251 1.26872 25.1012C1.25935 23.4246 1.64369 21.8481 2.41709 20.372Z" fill="url(#paint26_radial_255_1743)"/>
<path d="M4.73738 29.0663C3.3453 28.1635 2.21099 27.0027 1.33918 25.5791C1.29231 25.7272 1.27825 25.8897 1.29231 26.0568C1.61572 29.4294 3.18125 32.0089 5.9795 33.7955C5.2061 32.3195 4.79364 30.743 4.73738 29.0663Z" fill="#223642"/>
<path d="M4.73738 29.0663C3.3453 28.1635 2.21099 27.0027 1.33918 25.5791C1.29231 25.7272 1.27825 25.8897 1.29231 26.0568C1.61572 29.4294 3.18125 32.0089 5.9795 33.7955C5.2061 32.3195 4.79364 30.743 4.73738 29.0663Z" fill="url(#paint27_radial_255_1743)"/>
<path d="M13.9832 21.4605C13.7153 21.7048 13.4333 21.9251 13.1372 22.1312C12.6295 22.6629 12.1595 23.2185 11.7271 23.8078C11.4263 24.2294 11.1583 24.6748 10.928 25.1491C10.9045 25.1875 10.8763 25.2018 10.834 25.197C10.2089 25.197 9.59782 25.1156 9.00088 24.9575C7.9997 24.7467 7.05963 24.3731 6.18066 23.8318C6.6742 22.9216 7.30405 22.112 8.06081 21.4126C8.49324 20.9575 8.97737 20.5743 9.51791 20.2629C9.59782 20.1718 9.70123 20.1097 9.82344 20.0713C9.92092 20.1248 10.0188 20.1777 10.1168 20.2298C10.2342 20.2923 10.3518 20.3537 10.4693 20.4143C10.6226 20.4932 10.7757 20.5705 10.928 20.6461C11.5673 20.8952 12.2253 21.0868 12.9022 21.221C13.2265 21.3024 13.5555 21.3503 13.8892 21.3647L13.9832 21.4605Z" fill="#223642"/>
<path d="M13.9832 21.4605C13.7153 21.7048 13.4333 21.9251 13.1372 22.1312C12.6295 22.6629 12.1595 23.2185 11.7271 23.8078C11.4263 24.2294 11.1583 24.6748 10.928 25.1491C10.9045 25.1875 10.8763 25.2018 10.834 25.197C10.2089 25.197 9.59782 25.1156 9.00088 24.9575C7.9997 24.7467 7.05963 24.3731 6.18066 23.8318C6.6742 22.9216 7.30405 22.112 8.06081 21.4126C8.49324 20.9575 8.97737 20.5743 9.51791 20.2629C9.59782 20.1718 9.70123 20.1097 9.82344 20.0713C9.92092 20.1248 10.0188 20.1777 10.1168 20.2298C10.2342 20.2923 10.3518 20.3537 10.4693 20.4143C10.6226 20.4932 10.7757 20.5705 10.928 20.6461C11.5673 20.8952 12.2253 21.0868 12.9022 21.221C13.2265 21.3024 13.5555 21.3503 13.8892 21.3647L13.9832 21.4605Z" fill="url(#paint28_radial_255_1743)"/>
<path d="M10.8347 25.4127C10.2894 26.5719 9.9745 27.7935 9.89459 29.0774V30.3229C8.11316 30.3276 6.46334 29.863 4.93572 28.9336C4.89342 27.1804 5.28355 25.5324 6.11081 23.9995C6.39753 24.1719 6.68895 24.3348 6.98037 24.4786C8.21187 25.0199 9.49506 25.3313 10.8347 25.4127Z" fill="#223642"/>
<path d="M10.8347 25.4127C10.2894 26.5719 9.9745 27.7935 9.89459 29.0774V30.3229C8.11316 30.3276 6.46334 29.863 4.93572 28.9336C4.89342 27.1804 5.28355 25.5324 6.11081 23.9995C6.39753 24.1719 6.68895 24.3348 6.98037 24.4786C8.21187 25.0199 9.49506 25.3313 10.8347 25.4127Z" fill="url(#paint29_radial_255_1743)"/>
<path d="M14.6419 27.4965C14.7688 26.4521 15.0509 25.451 15.488 24.5024C14.9381 24.7132 14.374 24.9048 13.7959 25.0773C13.3916 25.1826 12.9827 25.2689 12.5738 25.3408L12.4105 25.3527L12.276 25.3623L12.1387 25.3717C12.0291 25.3792 11.9196 25.3864 11.81 25.3933C11.5476 25.4098 11.2851 25.4244 11.0227 25.4366C10.7124 26.021 10.4915 26.6437 10.3646 27.3048C10.1061 28.2869 9.99799 29.2929 10.0356 30.3228C11.0415 30.3468 12.0144 30.1838 12.9498 29.8438C13.3399 29.7479 13.716 29.6138 14.0779 29.4366C14.2659 29.3647 14.421 29.2641 14.5479 29.1252C14.5573 28.579 14.5855 28.0378 14.6419 27.4965Z" fill="#223642"/>
<path d="M14.6419 27.4965C14.7688 26.4521 15.0509 25.451 15.488 24.5024C14.9381 24.7132 14.374 24.9048 13.7959 25.0773C13.3916 25.1826 12.9827 25.2689 12.5738 25.3408L12.4105 25.3527L12.276 25.3623L12.1387 25.3717C12.0291 25.3792 11.9196 25.3864 11.81 25.3933C11.5476 25.4098 11.2851 25.4244 11.0227 25.4366C10.7124 26.021 10.4915 26.6437 10.3646 27.3048C10.1061 28.2869 9.99799 29.2929 10.0356 30.3228C11.0415 30.3468 12.0144 30.1838 12.9498 29.8438C13.3399 29.7479 13.716 29.6138 14.0779 29.4366C14.2659 29.3647 14.421 29.2641 14.5479 29.1252C14.5573 28.579 14.5855 28.0378 14.6419 27.4965Z" fill="url(#paint30_radial_255_1743)"/>
<path d="M11.3988 35.3529C9.62677 35.3673 7.96754 34.941 6.41643 34.0835C5.52336 32.6798 5.03452 31.1374 4.95932 29.4607C4.94522 29.3696 4.95932 29.2883 5.00632 29.2212C5.52336 29.4751 6.0404 29.7147 6.55744 29.9398C7.63852 30.3038 8.7525 30.4954 9.89469 30.5146C9.98399 31.7457 10.266 32.929 10.7408 34.0595C10.9711 34.4859 11.192 34.917 11.3988 35.3529Z" fill="#223642"/>
<path d="M11.3988 35.3529C9.62677 35.3673 7.96754 34.941 6.41643 34.0835C5.52336 32.6798 5.03452 31.1374 4.95932 29.4607C4.94522 29.3696 4.95932 29.2883 5.00632 29.2212C5.52336 29.4751 6.0404 29.7147 6.55744 29.9398C7.63852 30.3038 8.7525 30.4954 9.89469 30.5146C9.98399 31.7457 10.266 32.929 10.7408 34.0595C10.9711 34.4859 11.192 34.917 11.3988 35.3529Z" fill="url(#paint31_radial_255_1743)"/>
<path d="M11.6331 35.2809C13.1937 35.2474 14.6508 34.8306 16.0045 34.0354C15.8541 33.7864 15.7131 33.5419 15.5814 33.2929C15.0268 32.0426 14.6884 30.7348 14.5709 29.3647C13.4334 29.9875 12.2207 30.3563 10.9281 30.4665C10.6461 30.5 10.3641 30.5144 10.082 30.5144C10.1901 32.2437 10.7072 33.8343 11.6331 35.2809Z" fill="#223642"/>
<path d="M11.6331 35.2809C13.1937 35.2474 14.6508 34.8306 16.0045 34.0354C15.8541 33.7864 15.7131 33.5419 15.5814 33.2929C15.0268 32.0426 14.6884 30.7348 14.5709 29.3647C13.4334 29.9875 12.2207 30.3563 10.9281 30.4665C10.6461 30.5 10.3641 30.5144 10.082 30.5144C10.1901 32.2437 10.7072 33.8343 11.6331 35.2809Z" fill="url(#paint32_radial_255_1743)"/>
<path d="M6.83912 34.5386C8.34794 35.2236 9.93196 35.559 11.5865 35.5445C12.5219 36.9673 13.7251 38.0787 15.2058 38.8739C12.1458 38.9457 9.56533 37.8535 7.47367 35.5925C7.20105 35.2763 6.95663 34.941 6.74512 34.5865C6.75922 34.5481 6.79212 34.529 6.83912 34.5386Z" fill="#223642"/>
<path d="M6.83912 34.5386C8.34794 35.2236 9.93196 35.559 11.5865 35.5445C12.5219 36.9673 13.7251 38.0787 15.2058 38.8739C12.1458 38.9457 9.56533 37.8535 7.47367 35.5925C7.20105 35.2763 6.95663 34.941 6.74512 34.5865C6.75922 34.5481 6.79212 34.529 6.83912 34.5386Z" fill="url(#paint33_radial_255_1743)"/>
<path d="M19.577 37.6762C18.1293 36.7995 16.9542 35.645 16.0517 34.2031C14.7262 34.9601 13.2973 35.4007 11.7744 35.5205C12.7803 37.0007 14.0823 38.1265 15.6757 38.8977C17.0623 38.7636 18.3596 38.3564 19.577 37.6762Z" fill="#223642"/>
<path d="M19.577 37.6762C18.1293 36.7995 16.9542 35.645 16.0517 34.2031C14.7262 34.9601 13.2973 35.4007 11.7744 35.5205C12.7803 37.0007 14.0823 38.1265 15.6757 38.8977C17.0623 38.7636 18.3596 38.3564 19.577 37.6762Z" fill="url(#paint34_radial_255_1743)"/>
<path d="M23.9487 39.0658C23.8077 39.1377 23.9487 39.0658 23.8077 39.1372C21.64 40.2346 19.2719 40.1432 16.9452 39.4486C16.6397 39.3433 16.2026 39.1521 15.9111 39.0179C15.9581 39.0179 15.9581 39.0179 16.1932 38.9935C17.4575 38.8258 18.6514 38.4234 19.7654 37.7959C21.011 38.5 22.5292 38.9413 23.9487 39.0658Z" fill="#223642"/>
<path d="M23.9487 39.0658C23.8077 39.1377 23.9487 39.0658 23.8077 39.1372C21.64 40.2346 19.2719 40.1432 16.9452 39.4486C16.6397 39.3433 16.2026 39.1521 15.9111 39.0179C15.9581 39.0179 15.9581 39.0179 16.1932 38.9935C17.4575 38.8258 18.6514 38.4234 19.7654 37.7959C21.011 38.5 22.5292 38.9413 23.9487 39.0658Z" fill="url(#paint35_radial_255_1743)"/>
<path d="M19.4827 30.7059C19.6002 30.5622 19.6942 30.4041 19.7647 30.2269C19.6331 29.8916 19.4733 29.5707 19.2947 29.2688C19.0268 28.6126 18.8059 27.9419 18.6367 27.2568C18.5802 26.8113 18.5144 26.3611 18.4486 25.9155C18.3076 26.0999 18.1666 26.2831 18.0256 26.4664L17.9954 26.5057C17.8644 26.6759 17.7335 26.8461 17.6026 27.0173C17.1607 27.5299 16.6766 27.9946 16.1455 28.4065C15.7224 28.7179 15.2853 29.0053 14.8294 29.2688C14.7871 29.9299 14.867 30.5862 15.0644 31.2329C15.2806 32.2054 15.6519 33.1156 16.169 33.9634C16.9962 33.4652 17.7436 32.8568 18.4016 32.1431C18.8059 31.6975 19.1678 31.2185 19.4827 30.7059Z" fill="#223642"/>
<path d="M19.4827 30.7059C19.6002 30.5622 19.6942 30.4041 19.7647 30.2269C19.6331 29.8916 19.4733 29.5707 19.2947 29.2688C19.0268 28.6126 18.8059 27.9419 18.6367 27.2568C18.5802 26.8113 18.5144 26.3611 18.4486 25.9155C18.3076 26.0999 18.1666 26.2831 18.0256 26.4664L17.9954 26.5057C17.8644 26.6759 17.7335 26.8461 17.6026 27.0173C17.1607 27.5299 16.6766 27.9946 16.1455 28.4065C15.7224 28.7179 15.2853 29.0053 14.8294 29.2688C14.7871 29.9299 14.867 30.5862 15.0644 31.2329C15.2806 32.2054 15.6519 33.1156 16.169 33.9634C16.9962 33.4652 17.7436 32.8568 18.4016 32.1431C18.8059 31.6975 19.1678 31.2185 19.4827 30.7059Z" fill="url(#paint36_radial_255_1743)"/>
<path d="M38.4252 26.1075C38.4346 26.0596 38.4158 26.0261 38.3782 26.0117C37.424 27.3914 36.2255 28.4932 34.7824 29.3171C34.6978 30.8548 34.3171 32.3063 33.6309 33.6764C33.6309 33.7099 33.645 33.7243 33.6779 33.7243C36.4746 32.0241 38.0398 29.4369 38.4252 26.1075Z" fill="#223642"/>
<path d="M38.4252 26.1075C38.4346 26.0596 38.4158 26.0261 38.3782 26.0117C37.424 27.3914 36.2255 28.4932 34.7824 29.3171C34.6978 30.8548 34.3171 32.3063 33.6309 33.6764C33.6309 33.7099 33.645 33.7243 33.6779 33.7243C36.4746 32.0241 38.0398 29.4369 38.4252 26.1075Z" fill="url(#paint37_radial_255_1743)"/>
<path d="M23.3838 33.9394C22.7116 35.1754 21.8045 36.1861 20.6576 36.9813C20.385 37.2113 20.0888 37.4029 19.7645 37.5562C19.4261 37.3837 19.1112 37.1777 18.8245 36.9334C17.7951 36.1622 16.9349 35.228 16.2393 34.131C16.4026 34.0245 16.5659 33.9202 16.7292 33.8152C16.8009 33.769 16.8726 33.7227 16.9443 33.6759C17.5366 33.2161 18.1006 32.7226 18.6364 32.1909C19.0924 31.6305 19.5154 31.0364 19.9055 30.4185C20.3051 31.0507 20.761 31.64 21.2686 32.1909C21.8233 32.7562 22.4202 33.2688 23.0548 33.7238C23.1817 33.7718 23.2898 33.8436 23.3838 33.9394Z" fill="#223642"/>
<path d="M23.3838 33.9394C22.7116 35.1754 21.8045 36.1861 20.6576 36.9813C20.385 37.2113 20.0888 37.4029 19.7645 37.5562C19.4261 37.3837 19.1112 37.1777 18.8245 36.9334C17.7951 36.1622 16.9349 35.228 16.2393 34.131C16.4026 34.0245 16.5659 33.9202 16.7292 33.8152C16.8009 33.769 16.8726 33.7227 16.9443 33.6759C17.5366 33.2161 18.1006 32.7226 18.6364 32.1909C19.0924 31.6305 19.5154 31.0364 19.9055 30.4185C20.3051 31.0507 20.761 31.64 21.2686 32.1909C21.8233 32.7562 22.4202 33.2688 23.0548 33.7238C23.1817 33.7718 23.2898 33.8436 23.3838 33.9394Z" fill="url(#paint38_radial_255_1743)"/>
<path d="M24.3714 38.874C25.9648 38.0501 27.2668 36.8812 28.2727 35.377C27.8967 35.3291 27.5206 35.2859 27.1446 35.2572C25.8849 35.0656 24.7004 34.6489 23.5958 34.0117C22.9143 35.0943 22.0917 36.0524 21.1281 36.886C20.944 37.0176 20.7415 37.1481 20.54 37.278C20.4268 37.351 20.3139 37.4238 20.2046 37.4966L20.1435 37.5375C20.0864 37.576 20.0306 37.6144 19.9766 37.6529C20.1411 37.7744 19.9766 37.6529 20.0941 37.7482C21.4243 38.4908 22.8485 38.8645 24.3714 38.874Z" fill="#223642"/>
<path d="M24.3714 38.874C25.9648 38.0501 27.2668 36.8812 28.2727 35.377C27.8967 35.3291 27.5206 35.2859 27.1446 35.2572C25.8849 35.0656 24.7004 34.6489 23.5958 34.0117C22.9143 35.0943 22.0917 36.0524 21.1281 36.886C20.944 37.0176 20.7415 37.1481 20.54 37.278C20.4268 37.351 20.3139 37.4238 20.2046 37.4966L20.1435 37.5375C20.0864 37.576 20.0306 37.6144 19.9766 37.6529C20.1411 37.7744 19.9766 37.6529 20.0941 37.7482C21.4243 38.4908 22.8485 38.8645 24.3714 38.874Z" fill="url(#paint39_radial_255_1743)"/>
<path d="M32.8787 34.3467C32.9492 34.3467 32.9727 34.3802 32.9492 34.4425C30.9468 37.3119 28.2159 38.7874 24.7471 38.8736C26.2747 38.0448 27.5156 36.8856 28.4603 35.4006C29.72 35.3622 30.9421 35.1276 32.1266 34.706C32.3898 34.6102 32.6437 34.4904 32.8787 34.3467Z" fill="#223642"/>
<path d="M32.8787 34.3467C32.9492 34.3467 32.9727 34.3802 32.9492 34.4425C30.9468 37.3119 28.2159 38.7874 24.7471 38.8736C26.2747 38.0448 27.5156 36.8856 28.4603 35.4006C29.72 35.3622 30.9421 35.1276 32.1266 34.706C32.3898 34.6102 32.6437 34.4904 32.8787 34.3467Z" fill="url(#paint40_radial_255_1743)"/>
<path d="M38.4956 25.4368C37.5837 26.9745 36.3616 28.1865 34.8293 29.0776L34.7588 27.7362C34.6131 26.4333 34.2512 25.1973 33.6777 24.0237C34.7729 23.3146 35.7271 22.4428 36.5449 21.4129C36.8129 21.0392 37.0714 20.656 37.3205 20.2632C38.1619 21.8824 38.552 23.6069 38.4956 25.4368Z" fill="#223642"/>
<path d="M38.4956 25.4368C37.5837 26.9745 36.3616 28.1865 34.8293 29.0776L34.7588 27.7362C34.6131 26.4333 34.2512 25.1973 33.6777 24.0237C34.7729 23.3146 35.7271 22.4428 36.5449 21.4129C36.8129 21.0392 37.0714 20.656 37.3205 20.2632C38.1619 21.8824 38.552 23.6069 38.4956 25.4368Z" fill="url(#paint41_radial_255_1743)"/>
<path d="M33.3964 23.9038C32.682 24.354 31.9158 24.675 31.0933 24.8618C30.4399 25.0869 29.7725 25.1828 29.0909 25.154C29.0674 25.154 29.0486 25.154 29.0251 25.1493C28.8089 24.6942 28.5598 24.263 28.2731 23.8559C27.8077 23.1708 27.2578 22.5576 26.6279 22.0115C27.4646 21.796 28.2778 21.5133 29.0721 21.1732C29.4622 20.9432 29.8524 20.7132 30.2472 20.4786C30.3412 20.4498 30.4211 20.4737 30.4822 20.5505C31.0087 20.9145 31.4787 21.3456 31.8923 21.8439C32.494 22.4522 32.9969 23.1373 33.3964 23.9038Z" fill="#223642"/>
<path d="M33.3964 23.9038C32.682 24.354 31.9158 24.675 31.0933 24.8618C30.4399 25.0869 29.7725 25.1828 29.0909 25.154C29.0674 25.154 29.0486 25.154 29.0251 25.1493C28.8089 24.6942 28.5598 24.263 28.2731 23.8559C27.8077 23.1708 27.2578 22.5576 26.6279 22.0115C27.4646 21.796 28.2778 21.5133 29.0721 21.1732C29.4622 20.9432 29.8524 20.7132 30.2472 20.4786C30.3412 20.4498 30.4211 20.4737 30.4822 20.5505C31.0087 20.9145 31.4787 21.3456 31.8923 21.8439C32.494 22.4522 32.9969 23.1373 33.3964 23.9038Z" fill="url(#paint42_radial_255_1743)"/>
<path d="M30.0592 30.3228C31.6714 30.3419 33.1849 29.9587 34.5951 29.1731C34.6938 27.3671 34.3177 25.6761 33.467 24.0952C33.3863 24.1391 33.3087 24.183 33.2332 24.2286C33.1769 24.2627 33.1217 24.2978 33.0674 24.3347C32.4094 24.6461 31.7372 24.9048 31.0463 25.1012C30.407 25.2354 29.7678 25.3359 29.1191 25.4126C29.3824 25.9826 29.5986 26.567 29.7772 27.1611C29.9041 27.7646 29.9981 28.3682 30.0592 28.9814V30.3228Z" fill="#223642"/>
<path d="M30.0592 30.3228C31.6714 30.3419 33.1849 29.9587 34.5951 29.1731C34.6938 27.3671 34.3177 25.6761 33.467 24.0952C33.3863 24.1391 33.3087 24.183 33.2332 24.2286C33.1769 24.2627 33.1217 24.2978 33.0674 24.3347C32.4094 24.6461 31.7372 24.9048 31.0463 25.1012C30.407 25.2354 29.7678 25.3359 29.1191 25.4126C29.3824 25.9826 29.5986 26.567 29.7772 27.1611C29.9041 27.7646 29.9981 28.3682 30.0592 28.9814V30.3228Z" fill="url(#paint43_radial_255_1743)"/>
<path d="M24.7472 29.7238C24.7096 30.3226 24.6156 30.7969 24.4652 31.3765C24.2396 32.2149 23.92 33.0148 23.5016 33.7717C22.759 33.3262 22.0915 32.7849 21.504 32.143C21.0433 31.7214 20.6532 31.2424 20.3289 30.7059C20.2161 30.5574 20.1221 30.3992 20.0469 30.2268C20.1926 29.882 20.3477 29.5466 20.5169 29.2208C20.7895 28.5214 20.9916 27.8029 21.128 27.0652C21.2126 26.5526 21.2831 26.04 21.3395 25.5322C21.5886 25.9681 21.8612 26.385 22.162 26.7777C22.6979 27.3717 23.2619 27.9274 23.8542 28.4544C24.1644 28.6507 24.4699 28.8568 24.7707 29.0771C24.7707 29.1532 24.7707 29.2159 24.7703 29.2717C24.77 29.3145 24.7694 29.3532 24.7683 29.3911C24.7656 29.4906 24.7598 29.5834 24.7472 29.7238Z" fill="#223642"/>
<path d="M24.7472 29.7238C24.7096 30.3226 24.6156 30.7969 24.4652 31.3765C24.2396 32.2149 23.92 33.0148 23.5016 33.7717C22.759 33.3262 22.0915 32.7849 21.504 32.143C21.0433 31.7214 20.6532 31.2424 20.3289 30.7059C20.2161 30.5574 20.1221 30.3992 20.0469 30.2268C20.1926 29.882 20.3477 29.5466 20.5169 29.2208C20.7895 28.5214 20.9916 27.8029 21.128 27.0652C21.2126 26.5526 21.2831 26.04 21.3395 25.5322C21.5886 25.9681 21.8612 26.385 22.162 26.7777C22.6979 27.3717 23.2619 27.9274 23.8542 28.4544C24.1644 28.6507 24.4699 28.8568 24.7707 29.0771C24.7707 29.1532 24.7707 29.2159 24.7703 29.2717C24.77 29.3145 24.7694 29.3532 24.7683 29.3911C24.7656 29.4906 24.7598 29.5834 24.7472 29.7238Z" fill="url(#paint44_radial_255_1743)"/>
<path d="M27.0033 29.8439C27.9434 30.1792 28.9117 30.3374 29.9176 30.323C29.9552 29.293 29.8471 28.287 29.5885 27.305C29.4616 26.6967 29.2595 26.1218 28.9775 25.5804C28.9916 25.4942 28.9587 25.4272 28.8835 25.3888C28.3993 25.4272 27.9105 25.4128 27.4264 25.3409C26.7213 25.2691 26.0304 25.1254 25.3582 24.9098L25.1669 24.833L24.9532 24.7467L24.6723 24.6326L24.6686 24.6311L24.3568 24.5045C24.2365 24.4557 24.116 24.4072 23.9951 24.3589C24.2066 24.8092 24.3946 25.2643 24.5592 25.7242C24.7378 26.4188 24.8647 27.1181 24.9352 27.8319C24.9681 28.196 24.9916 28.5649 25.0057 28.9337C25.1937 29.0535 25.1937 29.0535 25.4757 29.1972C26.0654 29.4827 26.2852 29.589 26.5122 29.6761C26.647 29.7277 26.7844 29.7725 27.0033 29.8439Z" fill="#223642"/>
<path d="M27.0033 29.8439C27.9434 30.1792 28.9117 30.3374 29.9176 30.323C29.9552 29.293 29.8471 28.287 29.5885 27.305C29.4616 26.6967 29.2595 26.1218 28.9775 25.5804C28.9916 25.4942 28.9587 25.4272 28.8835 25.3888C28.3993 25.4272 27.9105 25.4128 27.4264 25.3409C26.7213 25.2691 26.0304 25.1254 25.3582 24.9098L25.1669 24.833L24.9532 24.7467L24.6723 24.6326L24.6686 24.6311L24.3568 24.5045C24.2365 24.4557 24.116 24.4072 23.9951 24.3589C24.2066 24.8092 24.3946 25.2643 24.5592 25.7242C24.7378 26.4188 24.8647 27.1181 24.9352 27.8319C24.9681 28.196 24.9916 28.5649 25.0057 28.9337C25.1937 29.0535 25.1937 29.0535 25.4757 29.1972C26.0654 29.4827 26.2852 29.589 26.5122 29.6761C26.647 29.7277 26.7844 29.7725 27.0033 29.8439Z" fill="url(#paint45_radial_255_1743)"/>
<path d="M29.8705 30.5147C29.7718 32.1865 29.2876 33.7242 28.4134 35.1374C26.7165 35.1469 25.1325 34.7158 23.666 33.844C23.6832 33.811 23.7004 33.7787 23.7177 33.7468C23.7382 33.7091 23.7588 33.6719 23.7798 33.6353C23.8186 33.5675 23.8586 33.5015 23.901 33.4368C24.216 32.7614 24.4651 32.0571 24.6531 31.329C24.827 30.62 24.921 29.9014 24.9351 29.1733C25.6167 29.5039 26.3029 29.8056 27.0033 30.0835C27.6378 30.2464 28.2818 30.3757 28.9304 30.4668C29.2453 30.4907 29.5556 30.5051 29.8705 30.5147Z" fill="#223642"/>
<path d="M29.8705 30.5147C29.7718 32.1865 29.2876 33.7242 28.4134 35.1374C26.7165 35.1469 25.1325 34.7158 23.666 33.844C23.6832 33.811 23.7004 33.7787 23.7177 33.7468C23.7382 33.7091 23.7588 33.6719 23.7798 33.6353C23.8186 33.5675 23.8586 33.5015 23.901 33.4368C24.216 32.7614 24.4651 32.0571 24.6531 31.329C24.827 30.62 24.921 29.9014 24.9351 29.1733C25.6167 29.5039 26.3029 29.8056 27.0033 30.0835C27.6378 30.2464 28.2818 30.3757 28.9304 30.4668C29.2453 30.4907 29.5556 30.5051 29.8705 30.5147Z" fill="url(#paint46_radial_255_1743)"/>
<path d="M33.1609 34.0353C34.0023 32.6987 34.4723 31.2376 34.571 29.6521C34.5851 29.5754 34.5663 29.5131 34.524 29.4604C34.1433 29.6233 33.7672 29.7814 33.3959 29.9395C32.3148 30.3132 31.2009 30.5048 30.0587 30.5143C29.9694 31.7454 29.6873 32.9287 29.2126 34.0593C29.0293 34.4281 28.8225 34.7873 28.6016 35.1371C30.2138 35.1706 31.732 34.8018 33.1609 34.0353Z" fill="#223642"/>
<path d="M33.1609 34.0353C34.0023 32.6987 34.4723 31.2376 34.571 29.6521C34.5851 29.5754 34.5663 29.5131 34.524 29.4604C34.1433 29.6233 33.7672 29.7814 33.3959 29.9395C32.3148 30.3132 31.2009 30.5048 30.0587 30.5143C29.9694 31.7454 29.6873 32.9287 29.2126 34.0593C29.0293 34.4281 28.8225 34.7873 28.6016 35.1371C30.2138 35.1706 31.732 34.8018 33.1609 34.0353Z" fill="url(#paint47_radial_255_1743)"/>
</g>
<path d="M115.488 6.3573C115.547 7.26979 115.973 8.02919 116.704 8.51912C117.478 9.03661 118.743 9.24177 119.928 9.04274C121.143 8.83758 122.032 8.16392 122.39 7.17793C122.48 6.92684 122.567 6.45834 122.567 6.22256V6.06027L121.97 6.0664L121.373 6.07558L121.336 6.33586C121.264 6.82273 121.081 7.16568 120.717 7.49333C120.183 7.97713 119.303 8.18842 118.463 8.03838C117.469 7.85771 116.8 7.19018 116.698 6.26849L116.676 6.07558L116.073 6.0664L115.47 6.06027L115.488 6.3573Z" fill="#223642"/>
<path d="M58.0694 6.7033C55.8808 6.86252 54.0622 7.60355 52.8249 8.84062L52.5793 9.08865L53.0798 9.60614C53.3565 9.89092 53.6052 10.142 53.63 10.1634C53.6705 10.1971 53.714 10.1665 53.9192 9.97666C54.8456 9.10396 56.114 8.51911 57.5316 8.31089C58.0041 8.24046 59.0393 8.21596 59.4932 8.26189C62.0766 8.52829 64.1719 10.2094 64.9926 12.6743C65.117 13.0479 65.2538 13.6328 65.2911 13.9512L65.3128 14.1441H61.0321H56.7544V14.8637V15.5833H61.0476H65.3408L65.3191 15.8191C65.288 16.1774 65.1636 16.8143 65.0548 17.1664C64.5325 18.8995 63.3139 20.3479 61.7129 21.1349C61.1129 21.4288 60.5564 21.6064 59.8476 21.7289C59.4528 21.7963 58.1347 21.8055 57.687 21.7442C56.1513 21.5299 54.8798 20.9634 53.9161 20.057L53.6736 19.8304L53.5337 19.9651C53.456 20.0386 53.2073 20.2897 52.9834 20.5255L52.5762 20.9481L52.8995 21.2604C54.199 22.5097 55.9834 23.1987 58.2621 23.3334C59.8476 23.4253 61.2714 23.1589 62.5833 22.522C64.175 21.7503 65.347 20.6174 66.1615 19.0588C66.8237 17.7972 67.1128 16.5662 67.1128 15.0168C67.1128 13.4674 66.8206 12.2303 66.1584 10.9688C65.4185 9.55715 64.402 8.50992 63.003 7.7199C62.1139 7.21772 61.0662 6.8809 59.9844 6.74923C59.4994 6.69105 58.5637 6.66961 58.0694 6.7033Z" fill="#223642"/>
<path d="M88.9833 10.8522C86.7419 11.1308 85.0072 12.3189 84.0807 14.2113C83.6611 15.0687 83.459 15.9934 83.459 17.0529C83.459 19.2637 84.4227 21.1347 86.1419 22.2676C86.9191 22.779 87.8206 23.1128 88.8216 23.2567C89.2817 23.324 90.3885 23.3332 90.8268 23.272C92.518 23.0423 93.8672 22.2737 94.6661 21.0857C94.7687 20.9326 94.7781 20.9019 94.7407 20.8652C94.691 20.8193 93.5936 20.0844 93.547 20.066C93.5314 20.0599 93.4661 20.1272 93.4071 20.216C93.2361 20.4641 92.7356 20.9417 92.434 21.1377C91.4485 21.7807 90.0869 22.0073 88.7843 21.7379C88.2185 21.6215 87.6403 21.3827 87.1491 21.0642C86.8351 20.8591 86.3688 20.4181 86.1139 20.0874C85.7097 19.5607 85.374 18.7707 85.2434 18.0481C85.1781 17.6745 85.1533 16.8386 85.1968 16.4466C85.2932 15.58 85.5667 14.8206 86.0268 14.1409C86.232 13.8408 86.6735 13.3876 86.9999 13.1457C87.3014 12.9252 87.8921 12.6221 88.2558 12.5057C88.8123 12.3251 89.5833 12.224 90.1429 12.2608C91.5045 12.3465 92.6175 12.8977 93.3636 13.8561L93.5376 14.0796L94.1159 13.6938C94.4361 13.4825 94.7159 13.2896 94.7376 13.2712C94.7936 13.2222 94.747 13.1334 94.5107 12.8272C93.7055 11.7861 92.5646 11.1431 91.091 10.8951C90.603 10.8124 89.4776 10.7879 88.9833 10.8522Z" fill="#223642"/>
<path d="M102.288 10.8522C101.527 10.944 100.899 11.1247 100.23 11.4493C99.2416 11.9239 98.5048 12.5455 97.9172 13.3937C97.0996 14.5726 96.7421 15.9168 96.8292 17.4907C96.91 18.9422 97.4261 20.219 98.3649 21.2847C99.0115 22.0196 100.013 22.6656 101.007 22.9902C102.624 23.52 104.545 23.4189 106.034 22.7238C107.968 21.8236 109.218 20.0721 109.479 17.8949C109.529 17.4999 109.529 16.6058 109.479 16.2108C109.227 14.1071 108.058 12.4108 106.224 11.486C105.596 11.1706 104.806 10.9379 104.066 10.8552C103.572 10.797 102.758 10.797 102.288 10.8522ZM103.668 12.2791C104.781 12.3893 105.652 12.7721 106.392 13.4794C107.138 14.1929 107.586 15.0901 107.75 16.1985C107.85 16.863 107.803 17.8398 107.642 18.4675C107.502 19.0126 107.222 19.6097 106.892 20.0659C106.653 20.3997 106.149 20.8805 105.807 21.104C104.623 21.8756 103.019 22.0655 101.592 21.6C100.252 21.1622 99.2354 20.1302 98.7877 18.7554C98.5856 18.1399 98.5545 17.9072 98.5514 17.0835C98.5514 16.2261 98.5856 15.9781 98.7877 15.3534C99.2323 13.9755 100.246 12.9466 101.592 12.5057C102.276 12.2821 102.963 12.2056 103.668 12.2791Z" fill="#223642"/>
<path d="M71.1172 17.0527V23.2075H71.9566H72.7959L72.8021 20.4731L72.8115 17.7417L74.2291 17.7325L75.6467 17.7264L77.9534 20.467L80.2601 23.2075H81.2549C81.799 23.2075 82.2466 23.2014 82.2466 23.1953C82.2466 23.1891 81.0653 21.7592 79.6197 20.023L76.9928 16.8629L77.1109 16.722C77.1762 16.6424 78.2643 15.3227 79.5264 13.7916C80.7886 12.2575 81.8425 10.9806 81.8673 10.95C81.9109 10.901 81.8673 10.898 80.9938 10.898H80.0736L77.8726 13.6079L75.6715 16.3148L74.2415 16.3087L72.8115 16.3025L72.8021 13.5987L72.7959 10.898H71.9566H71.1172V17.0527Z" fill="#223642"/>
<path d="M113.334 17.0527V23.2075L114.102 23.2014L114.87 23.1922L119.008 18.3266L123.142 13.4609L123.152 18.3358L123.158 23.2075H124.013H124.868V17.0527V10.898H124.109H123.35L119.191 15.7789L115.028 20.6629L115.019 15.7789L115.013 10.898H114.173H113.334V17.0527Z" fill="#223642"/>
<path d="M130.93 11.027C130.93 11.1005 130.88 12.163 130.821 13.394C130.566 18.5995 130.429 19.659 129.854 20.8072C129.596 21.3186 129.27 21.6279 128.841 21.7657C128.542 21.8606 128.34 21.8728 128.011 21.8147C127.852 21.7871 127.719 21.7687 127.712 21.7749C127.703 21.7871 127.604 23.0181 127.604 23.1191C127.604 23.1957 127.616 23.2018 127.939 23.2722C128.222 23.3335 128.353 23.3457 128.816 23.3457C129.323 23.3426 129.379 23.3365 129.609 23.26C130.722 22.8925 131.319 21.9188 131.766 19.7325C132.037 18.3974 132.161 17.1695 132.313 14.2513C132.357 13.4246 132.4 12.6652 132.41 12.558L132.428 12.3682H135.41H138.391V17.788V23.2079H139.246H140.101V17.0531V10.8984H135.515H130.93V11.027Z" fill="#223642"/>
<path d="M119.542 28.8725C118.93 28.9459 118.42 29.2215 118.053 29.6778L117.935 29.8278V29.3655V28.9031H117.609H117.282V32.2714V35.6396H117.624H117.966L117.972 34.2923L117.982 32.945L118.112 33.1104C118.349 33.4074 118.778 33.6769 119.194 33.784C119.297 33.8116 119.521 33.8422 119.695 33.8545C120.947 33.9279 121.939 33.242 122.259 32.0723C122.35 31.7477 122.359 31.019 122.278 30.6975C122.119 30.0759 121.774 29.5829 121.268 29.2491C120.808 28.949 120.133 28.802 119.542 28.8725ZM120.323 29.5032C120.944 29.6625 121.482 30.2351 121.619 30.8781C121.722 31.3558 121.659 31.8733 121.451 32.2867C121.224 32.7368 120.885 33.0246 120.407 33.1808C120.089 33.2818 119.58 33.2972 119.287 33.2084C118.65 33.0216 118.187 32.547 118.01 31.9009C117.944 31.6589 117.935 31.1017 117.994 30.8628C118.016 30.7709 118.091 30.5811 118.156 30.4433C118.538 29.6564 119.421 29.2736 120.323 29.5032Z" fill="#223642"/>
<path d="M112.688 31.3592L112.697 33.8181L113.033 33.8272L113.366 33.8364V31.6593V29.4852H114.796H116.226V29.1943V28.9034H114.454H112.682L112.688 31.3592Z" fill="#223642"/>
<path d="M122.857 28.94C122.866 28.9614 123.367 30.0607 123.966 31.3804C124.812 33.2452 125.055 33.7995 125.039 33.8607C125.03 33.9005 124.946 34.0904 124.852 34.2772C124.554 34.8896 124.28 35.1039 123.796 35.0978C123.503 35.0978 123.27 35.0212 123.049 34.8559C122.972 34.7947 122.9 34.7518 122.897 34.7579C122.857 34.8008 122.599 35.2172 122.599 35.2356C122.602 35.2662 122.844 35.4377 122.993 35.5142C123.196 35.6153 123.488 35.6704 123.814 35.6704C124.427 35.6704 124.843 35.4499 125.179 34.9478C125.347 34.6967 125.406 34.5681 126.87 31.3376L127.964 28.9185L127.638 28.9093C127.402 28.9032 127.305 28.9124 127.29 28.94C127.277 28.9614 126.855 29.8923 126.354 31.0069C125.854 32.1245 125.437 33.037 125.428 33.037C125.418 33.037 124.992 32.1062 124.479 30.9701L123.553 28.9032H123.196C122.925 28.9032 122.844 28.9124 122.857 28.94Z" fill="#223642"/>
<path d="M129.096 31.3684V33.8364L129.431 33.8272L129.764 33.8181L129.773 31.6501L129.78 29.4852H131.35H132.92V31.6593V33.8334H133.246H133.572V31.3684V28.9034H131.334H129.096V31.3684Z" fill="#223642"/>
<path d="M135.568 31.3592L135.577 33.8181L135.913 33.8272L136.245 33.8364V31.6593V29.4852H137.815H139.385V31.6593V33.8364L139.721 33.8272L140.054 33.8181L140.063 31.3592L140.069 28.9034H137.815H135.562L135.568 31.3592Z" fill="#223642"/>
<defs>
<radialGradient id="paint0_radial_255_1743" cx="0" cy="0" r="1" gradientUnits="userSpaceOnUse" gradientTransform="translate(19.9999 19.9838) rotate(90) scale(19.9838 19.9745)">
<stop offset="0.284628" stop-color="#CE4227"/>
<stop offset="1" stop-color="#F06F28"/>
</radialGradient>
<radialGradient id="paint1_radial_255_1743" cx="0" cy="0" r="1" gradientUnits="userSpaceOnUse" gradientTransform="translate(19.9998 19.9837) rotate(90) scale(19.9838 19.9745)">
<stop offset="0.284628" stop-color="#CE4227"/>
<stop offset="1" stop-color="#F06F28"/>
</radialGradient>
<radialGradient id="paint2_radial_255_1743" cx="0" cy="0" r="1" gradientUnits="userSpaceOnUse" gradientTransform="translate(19.9999 19.9838) rotate(90) scale(19.9838 19.9745)">
<stop offset="0.284628" stop-color="#CE4227"/>
<stop offset="1" stop-color="#F06F28"/>
</radialGradient>
<radialGradient id="paint3_radial_255_1743" cx="0" cy="0" r="1" gradientUnits="userSpaceOnUse" gradientTransform="translate(19.9998 19.9839) rotate(90) scale(19.9838 19.9745)">
<stop offset="0.284628" stop-color="#CE4227"/>
<stop offset="1" stop-color="#F06F28"/>
</radialGradient>
<radialGradient id="paint4_radial_255_1743" cx="0" cy="0" r="1" gradientUnits="userSpaceOnUse" gradientTransform="translate(20 19.9838) rotate(90) scale(19.9838 19.9745)">
<stop offset="0.284628" stop-color="#CE4227"/>
<stop offset="1" stop-color="#F06F28"/>
</radialGradient>
<radialGradient id="paint5_radial_255_1743" cx="0" cy="0" r="1" gradientUnits="userSpaceOnUse" gradientTransform="translate(19.9999 19.9837) rotate(90) scale(19.9838 19.9745)">
<stop offset="0.284628" stop-color="#CE4227"/>
<stop offset="1" stop-color="#F06F28"/>
</radialGradient>
<radialGradient id="paint6_radial_255_1743" cx="0" cy="0" r="1" gradientUnits="userSpaceOnUse" gradientTransform="translate(19.9999 19.9839) rotate(90) scale(19.9838 19.9745)">
<stop offset="0.284628" stop-color="#CE4227"/>
<stop offset="1" stop-color="#F06F28"/>
</radialGradient>
<radialGradient id="paint7_radial_255_1743" cx="0" cy="0" r="1" gradientUnits="userSpaceOnUse" gradientTransform="translate(19.9997 19.9836) rotate(90) scale(19.9838 19.9745)">
<stop offset="0.284628" stop-color="#CE4227"/>
<stop offset="1" stop-color="#F06F28"/>
</radialGradient>
<radialGradient id="paint8_radial_255_1743" cx="0" cy="0" r="1" gradientUnits="userSpaceOnUse" gradientTransform="translate(19.9997 19.9839) rotate(90) scale(19.9838 19.9745)">
<stop offset="0.284628" stop-color="#CE4227"/>
<stop offset="1" stop-color="#F06F28"/>
</radialGradient>
<radialGradient id="paint9_radial_255_1743" cx="0" cy="0" r="1" gradientUnits="userSpaceOnUse" gradientTransform="translate(19.9992 19.9836) rotate(90) scale(19.9838 19.9745)">
<stop offset="0.284628" stop-color="#CE4227"/>
<stop offset="1" stop-color="#F06F28"/>
</radialGradient>
<radialGradient id="paint10_radial_255_1743" cx="0" cy="0" r="1" gradientUnits="userSpaceOnUse" gradientTransform="translate(19.9998 19.9839) rotate(90) scale(19.9838 19.9745)">
<stop offset="0.284628" stop-color="#CE4227"/>
<stop offset="1" stop-color="#F06F28"/>
</radialGradient>
<radialGradient id="paint11_radial_255_1743" cx="0" cy="0" r="1" gradientUnits="userSpaceOnUse" gradientTransform="translate(19.9994 19.9838) rotate(90) scale(19.9838 19.9745)">
<stop offset="0.284628" stop-color="#CE4227"/>
<stop offset="1" stop-color="#F06F28"/>
</radialGradient>
<radialGradient id="paint12_radial_255_1743" cx="0" cy="0" r="1" gradientUnits="userSpaceOnUse" gradientTransform="translate(19.9992 19.9836) rotate(90) scale(19.9838 19.9745)">
<stop offset="0.284628" stop-color="#CE4227"/>
<stop offset="1" stop-color="#F06F28"/>
</radialGradient>
<radialGradient id="paint13_radial_255_1743" cx="0" cy="0" r="1" gradientUnits="userSpaceOnUse" gradientTransform="translate(19.9993 19.9837) rotate(90) scale(19.9838 19.9745)">
<stop offset="0.284628" stop-color="#CE4227"/>
<stop offset="1" stop-color="#F06F28"/>
</radialGradient>
<radialGradient id="paint14_radial_255_1743" cx="0" cy="0" r="1" gradientUnits="userSpaceOnUse" gradientTransform="translate(20 19.9835) rotate(90) scale(19.9838 19.9745)">
<stop offset="0.284628" stop-color="#CE4227"/>
<stop offset="1" stop-color="#F06F28"/>
</radialGradient>
<radialGradient id="paint15_radial_255_1743" cx="0" cy="0" r="1" gradientUnits="userSpaceOnUse" gradientTransform="translate(19.9994 19.9835) rotate(90) scale(19.9838 19.9745)">
<stop offset="0.284628" stop-color="#CE4227"/>
<stop offset="1" stop-color="#F06F28"/>
</radialGradient>
<radialGradient id="paint16_radial_255_1743" cx="0" cy="0" r="1" gradientUnits="userSpaceOnUse" gradientTransform="translate(19.9996 19.9839) rotate(90) scale(19.9838 19.9745)">
<stop offset="0.284628" stop-color="#CE4227"/>
<stop offset="1" stop-color="#F06F28"/>
</radialGradient>
<radialGradient id="paint17_radial_255_1743" cx="0" cy="0" r="1" gradientUnits="userSpaceOnUse" gradientTransform="translate(19.9994 19.9838) rotate(90) scale(19.9838 19.9745)">
<stop offset="0.284628" stop-color="#CE4227"/>
<stop offset="1" stop-color="#F06F28"/>
</radialGradient>
<radialGradient id="paint18_radial_255_1743" cx="0" cy="0" r="1" gradientUnits="userSpaceOnUse" gradientTransform="translate(19.9994 19.9839) rotate(90) scale(19.9838 19.9745)">
<stop offset="0.284628" stop-color="#CE4227"/>
<stop offset="1" stop-color="#F06F28"/>
</radialGradient>
<radialGradient id="paint19_radial_255_1743" cx="0" cy="0" r="1" gradientUnits="userSpaceOnUse" gradientTransform="translate(19.9993 19.9835) rotate(90) scale(19.9838 19.9745)">
<stop offset="0.284628" stop-color="#CE4227"/>
<stop offset="1" stop-color="#F06F28"/>
</radialGradient>
<radialGradient id="paint20_radial_255_1743" cx="0" cy="0" r="1" gradientUnits="userSpaceOnUse" gradientTransform="translate(19.9997 19.9839) rotate(90) scale(19.9838 19.9745)">
<stop offset="0.284628" stop-color="#CE4227"/>
<stop offset="1" stop-color="#F06F28"/>
</radialGradient>
<radialGradient id="paint21_radial_255_1743" cx="0" cy="0" r="1" gradientUnits="userSpaceOnUse" gradientTransform="translate(20.0001 19.9837) rotate(90) scale(19.9838 19.9745)">
<stop offset="0.284628" stop-color="#CE4227"/>
<stop offset="1" stop-color="#F06F28"/>
</radialGradient>
<radialGradient id="paint22_radial_255_1743" cx="0" cy="0" r="1" gradientUnits="userSpaceOnUse" gradientTransform="translate(19.9997 19.9839) rotate(90) scale(19.9838 19.9745)">
<stop offset="0.284628" stop-color="#CE4227"/>
<stop offset="1" stop-color="#F06F28"/>
</radialGradient>
<radialGradient id="paint23_radial_255_1743" cx="0" cy="0" r="1" gradientUnits="userSpaceOnUse" gradientTransform="translate(19.9998 19.9836) rotate(90) scale(19.9838 19.9745)">
<stop offset="0.284628" stop-color="#CE4227"/>
<stop offset="1" stop-color="#F06F28"/>
</radialGradient>
<radialGradient id="paint24_radial_255_1743" cx="0" cy="0" r="1" gradientUnits="userSpaceOnUse" gradientTransform="translate(19.9998 19.9837) rotate(90) scale(19.9838 19.9745)">
<stop offset="0.284628" stop-color="#CE4227"/>
<stop offset="1" stop-color="#F06F28"/>
</radialGradient>
<radialGradient id="paint25_radial_255_1743" cx="0" cy="0" r="1" gradientUnits="userSpaceOnUse" gradientTransform="translate(19.9992 19.9838) rotate(90) scale(19.9838 19.9745)">
<stop offset="0.284628" stop-color="#CE4227"/>
<stop offset="1" stop-color="#F06F28"/>
</radialGradient>
<radialGradient id="paint26_radial_255_1743" cx="0" cy="0" r="1" gradientUnits="userSpaceOnUse" gradientTransform="translate(19.9993 19.9836) rotate(90) scale(19.9838 19.9745)">
<stop offset="0.284628" stop-color="#CE4227"/>
<stop offset="1" stop-color="#F06F28"/>
</radialGradient>
<radialGradient id="paint27_radial_255_1743" cx="0" cy="0" r="1" gradientUnits="userSpaceOnUse" gradientTransform="translate(19.9994 19.9838) rotate(90) scale(19.9838 19.9745)">
<stop offset="0.284628" stop-color="#CE4227"/>
<stop offset="1" stop-color="#F06F28"/>
</radialGradient>
<radialGradient id="paint28_radial_255_1743" cx="0" cy="0" r="1" gradientUnits="userSpaceOnUse" gradientTransform="translate(19.9994 19.9836) rotate(90) scale(19.9838 19.9745)">
<stop offset="0.284628" stop-color="#CE4227"/>
<stop offset="1" stop-color="#F06F28"/>
</radialGradient>
<radialGradient id="paint29_radial_255_1743" cx="0" cy="0" r="1" gradientUnits="userSpaceOnUse" gradientTransform="translate(20 19.9837) rotate(90) scale(19.9838 19.9745)">
<stop offset="0.284628" stop-color="#CE4227"/>
<stop offset="1" stop-color="#F06F28"/>
</radialGradient>
<radialGradient id="paint30_radial_255_1743" cx="0" cy="0" r="1" gradientUnits="userSpaceOnUse" gradientTransform="translate(20 19.9836) rotate(90) scale(19.9838 19.9745)">
<stop offset="0.284628" stop-color="#CE4227"/>
<stop offset="1" stop-color="#F06F28"/>
</radialGradient>
<radialGradient id="paint31_radial_255_1743" cx="0" cy="0" r="1" gradientUnits="userSpaceOnUse" gradientTransform="translate(20.0001 19.9838) rotate(90) scale(19.9838 19.9745)">
<stop offset="0.284628" stop-color="#CE4227"/>
<stop offset="1" stop-color="#F06F28"/>
</radialGradient>
<radialGradient id="paint32_radial_255_1743" cx="0" cy="0" r="1" gradientUnits="userSpaceOnUse" gradientTransform="translate(19.9994 19.9837) rotate(90) scale(19.9838 19.9745)">
<stop offset="0.284628" stop-color="#CE4227"/>
<stop offset="1" stop-color="#F06F28"/>
</radialGradient>
<radialGradient id="paint33_radial_255_1743" cx="0" cy="0" r="1" gradientUnits="userSpaceOnUse" gradientTransform="translate(19.9998 19.9838) rotate(90) scale(19.9838 19.9745)">
<stop offset="0.284628" stop-color="#CE4227"/>
<stop offset="1" stop-color="#F06F28"/>
</radialGradient>
<radialGradient id="paint34_radial_255_1743" cx="0" cy="0" r="1" gradientUnits="userSpaceOnUse" gradientTransform="translate(19.9997 19.9837) rotate(90) scale(19.9838 19.9745)">
<stop offset="0.284628" stop-color="#CE4227"/>
<stop offset="1" stop-color="#F06F28"/>
</radialGradient>
<radialGradient id="paint35_radial_255_1743" cx="0" cy="0" r="1" gradientUnits="userSpaceOnUse" gradientTransform="translate(20.0001 19.9837) rotate(90) scale(19.9838 19.9745)">
<stop offset="0.284628" stop-color="#CE4227"/>
<stop offset="1" stop-color="#F06F28"/>
</radialGradient>
<radialGradient id="paint36_radial_255_1743" cx="0" cy="0" r="1" gradientUnits="userSpaceOnUse" gradientTransform="translate(19.9994 19.9836) rotate(90) scale(19.9838 19.9745)">
<stop offset="0.284628" stop-color="#CE4227"/>
<stop offset="1" stop-color="#F06F28"/>
</radialGradient>
<radialGradient id="paint37_radial_255_1743" cx="0" cy="0" r="1" gradientUnits="userSpaceOnUse" gradientTransform="translate(19.9995 19.9839) rotate(90) scale(19.9838 19.9745)">
<stop offset="0.284628" stop-color="#CE4227"/>
<stop offset="1" stop-color="#F06F28"/>
</radialGradient>
<radialGradient id="paint38_radial_255_1743" cx="0" cy="0" r="1" gradientUnits="userSpaceOnUse" gradientTransform="translate(19.9992 19.9835) rotate(90) scale(19.9838 19.9745)">
<stop offset="0.284628" stop-color="#CE4227"/>
<stop offset="1" stop-color="#F06F28"/>
</radialGradient>
<radialGradient id="paint39_radial_255_1743" cx="0" cy="0" r="1" gradientUnits="userSpaceOnUse" gradientTransform="translate(19.9997 19.9839) rotate(90) scale(19.9838 19.9745)">
<stop offset="0.284628" stop-color="#CE4227"/>
<stop offset="1" stop-color="#F06F28"/>
</radialGradient>
<radialGradient id="paint40_radial_255_1743" cx="0" cy="0" r="1" gradientUnits="userSpaceOnUse" gradientTransform="translate(19.9994 19.9836) rotate(90) scale(19.9838 19.9745)">
<stop offset="0.284628" stop-color="#CE4227"/>
<stop offset="1" stop-color="#F06F28"/>
</radialGradient>
<radialGradient id="paint41_radial_255_1743" cx="0" cy="0" r="1" gradientUnits="userSpaceOnUse" gradientTransform="translate(19.9994 19.9839) rotate(90) scale(19.9838 19.9745)">
<stop offset="0.284628" stop-color="#CE4227"/>
<stop offset="1" stop-color="#F06F28"/>
</radialGradient>
<radialGradient id="paint42_radial_255_1743" cx="0" cy="0" r="1" gradientUnits="userSpaceOnUse" gradientTransform="translate(20.0001 19.9838) rotate(90) scale(19.9838 19.9745)">
<stop offset="0.284628" stop-color="#CE4227"/>
<stop offset="1" stop-color="#F06F28"/>
</radialGradient>
<radialGradient id="paint43_radial_255_1743" cx="0" cy="0" r="1" gradientUnits="userSpaceOnUse" gradientTransform="translate(20.0001 19.9836) rotate(90) scale(19.9838 19.9745)">
<stop offset="0.284628" stop-color="#CE4227"/>
<stop offset="1" stop-color="#F06F28"/>
</radialGradient>
<radialGradient id="paint44_radial_255_1743" cx="0" cy="0" r="1" gradientUnits="userSpaceOnUse" gradientTransform="translate(19.9995 19.9835) rotate(90) scale(19.9838 19.9745)">
<stop offset="0.284628" stop-color="#CE4227"/>
<stop offset="1" stop-color="#F06F28"/>
</radialGradient>
<radialGradient id="paint45_radial_255_1743" cx="0" cy="0" r="1" gradientUnits="userSpaceOnUse" gradientTransform="translate(19.9995 19.9838) rotate(90) scale(19.9838 19.9745)">
<stop offset="0.284628" stop-color="#CE4227"/>
<stop offset="1" stop-color="#F06F28"/>
</radialGradient>
<radialGradient id="paint46_radial_255_1743" cx="0" cy="0" r="1" gradientUnits="userSpaceOnUse" gradientTransform="translate(19.9994 19.9839) rotate(90) scale(19.9838 19.9745)">
<stop offset="0.284628" stop-color="#CE4227"/>
<stop offset="1" stop-color="#F06F28"/>
</radialGradient>
<radialGradient id="paint47_radial_255_1743" cx="0" cy="0" r="1" gradientUnits="userSpaceOnUse" gradientTransform="translate(19.9996 19.9836) rotate(90) scale(19.9838 19.9745)">
<stop offset="0.284628" stop-color="#CE4227"/>
<stop offset="1" stop-color="#F06F28"/>
</radialGradient>
<clipPath id="clip0_255_1743">
<rect width="40" height="40" fill="white"/>
</clipPath>
</defs>
</svg>
