<svg width="22" height="22" viewBox="0 0 22 22" fill="none" xmlns="http://www.w3.org/2000/svg">
<g id="Website">
<path id="Vector" d="M7 11H6.5H7ZM15 11H15.5H15ZM11 15V15.5V15ZM13.0694 20.7856L13.1724 21.2749L13.0694 20.7856ZM8.9306 20.7856L8.82764 21.2749L8.9306 20.7856ZM1.73861 7.22119L1.27573 7.03214H1.27573L1.73861 7.22119ZM1.21438 13.0694L0.725097 13.1724L1.21438 13.0694ZM8.9306 1.21438L8.82764 0.725097L8.9306 1.21438ZM13.0694 1.21438L13.1724 0.725098L13.0694 1.21438ZM20.1808 7.25728L20.326 7.73575L20.1808 7.25728ZM1.81797 7.25692L1.9631 6.77844L1.81797 7.25692ZM19.7996 7.41285C20.251 8.519 20.5 9.7298 20.5 11H21.5C21.5 9.59803 21.225 8.25906 20.7254 7.03501L19.7996 7.41285ZM20.5 11C20.5 11.6747 20.4297 12.3324 20.2963 12.9664L21.2749 13.1724C21.4225 12.471 21.5 11.7443 21.5 11H20.5ZM20.2963 12.9664C19.5245 16.6346 16.6346 19.5245 12.9665 20.2963L13.1724 21.2749C17.2285 20.4214 20.4214 17.2285 21.2749 13.1724L20.2963 12.9664ZM12.9665 20.2963C12.3324 20.4297 11.6747 20.5 11 20.5V21.5C11.7443 21.5 12.471 21.4225 13.1724 21.2749L12.9665 20.2963ZM11 20.5C10.3253 20.5 9.66759 20.4297 9.03355 20.2963L8.82764 21.2749C9.52899 21.4225 10.2557 21.5 11 21.5V20.5ZM1.5 11C1.5 9.72881 1.74941 8.51711 2.20149 7.41025L1.27573 7.03214C0.775465 8.25696 0.5 9.59693 0.5 11H1.5ZM9.03355 20.2963C5.36536 19.5245 2.47553 16.6346 1.70367 12.9664L0.725097 13.1724C1.57859 17.2285 4.77151 20.4214 8.82764 21.2749L9.03355 20.2963ZM1.70367 12.9664C1.57025 12.3324 1.5 11.6747 1.5 11H0.5C0.5 11.7443 0.577519 12.471 0.725097 13.1724L1.70367 12.9664ZM2.20149 7.41025C3.37768 4.53052 5.92694 2.35736 9.03355 1.70367L8.82764 0.725097C5.39128 1.44818 2.57543 3.85002 1.27573 7.03214L2.20149 7.41025ZM9.03355 1.70367C9.66759 1.57025 10.3253 1.5 11 1.5V0.5C10.2557 0.5 9.52899 0.577519 8.82764 0.725097L9.03355 1.70367ZM11 1.5C11.6747 1.5 12.3324 1.57025 12.9665 1.70367L13.1724 0.725098C12.471 0.57752 11.7443 0.5 11 0.5V1.5ZM12.9665 1.70367C16.074 2.35756 18.6239 4.53183 19.7996 7.41285L20.7254 7.03501C19.4263 3.85147 16.6098 1.4484 13.1724 0.725098L12.9665 1.70367ZM12.5931 1.36637C12.8697 2.23328 13.8968 5.57645 14.3185 8.65492L15.3093 8.51919C14.8751 5.35007 13.8251 1.93792 13.5457 1.06239L12.5931 1.36637ZM14.3185 8.65492C14.4317 9.48109 14.5 10.2795 14.5 11H15.5C15.5 10.2204 15.4264 9.37428 15.3093 8.51919L14.3185 8.65492ZM20.0357 6.7788C18.9343 7.11287 16.8629 7.70046 14.7232 8.09536L14.9046 9.07875C17.0971 8.67413 19.2087 8.07461 20.326 7.73575L20.0357 6.7788ZM14.7232 8.09536C13.4261 8.33474 12.1212 8.5 11 8.5V9.5C12.2076 9.5 13.5795 9.32331 14.9046 9.07875L14.7232 8.09536ZM14.5 11C14.5 12.0662 14.3505 13.299 14.1297 14.5339L15.1141 14.7099C15.34 13.4464 15.5 12.1491 15.5 11H14.5ZM14.1297 14.5339C13.6456 17.2415 12.8333 19.8807 12.5931 20.6336L13.5457 20.9376C13.7902 20.1716 14.6183 17.4828 15.1141 14.7099L14.1297 14.5339ZM20.6336 12.5931C19.8807 12.8333 17.2415 13.6456 14.5339 14.1297L14.7099 15.1141C17.4828 14.6183 20.1716 13.7902 20.9376 13.5457L20.6336 12.5931ZM14.5339 14.1297C13.299 14.3505 12.0662 14.5 11 14.5V15.5C12.1491 15.5 13.4464 15.34 14.7099 15.1141L14.5339 14.1297ZM11 14.5C9.93379 14.5 8.70101 14.3505 7.46607 14.1297L7.29006 15.1141C8.55357 15.34 9.8509 15.5 11 15.5V14.5ZM7.46607 14.1297C4.75853 13.6456 2.11925 12.8333 1.36637 12.5931L1.06239 13.5457C1.8284 13.7902 4.51718 14.6183 7.29006 15.1141L7.46607 14.1297ZM6.5 11C6.5 12.1491 6.65996 13.4464 6.88587 14.7099L7.87026 14.5339C7.64946 13.299 7.5 12.0662 7.5 11H6.5ZM6.88587 14.7099C7.38166 17.4828 8.20984 20.1716 8.45426 20.9376L9.40694 20.6336C9.16671 19.8807 8.35436 17.2415 7.87026 14.5339L6.88587 14.7099ZM8.45426 1.06239C8.1749 1.93791 7.12488 5.35007 6.69073 8.5192L7.68148 8.65492C8.10321 5.57645 9.13032 2.23328 9.40694 1.36637L8.45426 1.06239ZM6.69073 8.5192C6.57359 9.37428 6.5 10.2204 6.5 11H7.5C7.5 10.2795 7.5683 9.48109 7.68148 8.65492L6.69073 8.5192ZM11 8.5C9.87876 8.5 8.57389 8.33474 7.27685 8.09536L7.09536 9.07875C8.42047 9.32331 9.79238 9.5 11 9.5V8.5ZM7.27685 8.09536C5.13635 7.70032 3.06424 7.11245 1.9631 6.77844L1.67283 7.73539C2.78977 8.07419 4.90215 8.67398 7.09536 9.07875L7.27685 8.09536ZM20.0321 6.78018C20.0319 6.7803 20.0323 6.78008 20.0332 6.7797C20.0341 6.77933 20.035 6.77901 20.0357 6.7788L20.326 7.73575C20.3848 7.71792 20.4401 7.69508 20.4929 7.66767L20.0321 6.78018ZM1.47775 7.64775C1.53791 7.68455 1.60288 7.71417 1.67283 7.73539L1.9631 6.77844C1.97684 6.78261 1.98942 6.78849 1.99947 6.79464L1.47775 7.64775Z" fill="#EF8548"/>
</g>
</svg>
